<svg width="16" height="9" viewBox="0 0 16 9" fill="none" xmlns="http://www.w3.org/2000/svg">
<path d="M15.4477 8.28426C15.225 8.49516 14.923 8.61364 14.6082 8.61364C14.2933 8.61364 13.9913 8.49516 13.7686 8.28426L7.89048 2.71551L2.01235 8.28426C1.78839 8.48919 1.48842 8.60258 1.17706 8.60002C0.865703 8.59745 0.567863 8.47914 0.347691 8.27055C0.127519 8.06197 0.00263214 7.77981 -7.43866e-05 7.48483C-0.00277996 7.18986 0.116914 6.90569 0.333226 6.69351L7.05091 0.329384C7.2736 0.118479 7.57559 -3.593e-07 7.89048 -3.45536e-07C8.20536 -3.31772e-07 8.50735 0.118479 8.73004 0.329384L15.4477 6.69351C15.6703 6.90448 15.7954 7.19058 15.7954 7.48888C15.7954 7.78719 15.6703 8.07329 15.4477 8.28426Z" fill="#F8F8F8"/>
</svg>
