<svg width="21" height="23" viewBox="0 0 21 23" fill="none" xmlns="http://www.w3.org/2000/svg">
<path fill-rule="evenodd" clip-rule="evenodd" d="M9.07132 0.584865C9.42531 0.231339 9.89894 0.0233188 10.3988 0.00184476C10.8986 -0.0196293 11.3883 0.147003 11.7713 0.468865L11.8993 0.585865L13.7993 2.48487H16.4853C16.9897 2.48496 17.4755 2.67564 17.8452 3.0187C18.215 3.36177 18.4415 3.83188 18.4793 4.33487L18.4853 4.48487V7.17087L20.3853 9.07087C20.7391 9.4249 20.9473 9.89874 20.9688 10.3988C20.9903 10.8989 20.8235 11.3888 20.5013 11.7719L20.3843 11.8989L18.4843 13.7989V16.4849C18.4845 16.9894 18.2939 17.4754 17.9508 17.8454C17.6077 18.2154 17.1375 18.442 16.6343 18.4799L16.4853 18.4849H13.8003L11.9003 20.3849C11.5463 20.7387 11.0725 20.9469 10.5724 20.9683C10.0723 20.9898 9.58239 20.823 9.19932 20.5009L9.07232 20.3849L7.17232 18.4849H4.48532C3.98075 18.485 3.49476 18.2945 3.12477 17.9514C2.75479 17.6083 2.52817 17.138 2.49032 16.6349L2.48532 16.4849V13.7989L0.585322 11.8989C0.231516 11.5448 0.0233195 11.071 0.0018434 10.5709C-0.0196327 10.0709 0.147173 9.58093 0.469322 9.19787L0.585322 9.07087L2.48532 7.17087V4.48487C2.48541 3.98046 2.67609 3.49472 3.01916 3.12495C3.36222 2.75518 3.83234 2.5287 4.33532 2.49087L4.48532 2.48487H7.17132L9.07132 0.584865ZM13.5643 7.46786L9.32032 11.7119L7.55232 9.94386C7.36468 9.75636 7.11024 9.65107 6.84497 9.65116C6.5797 9.65126 6.32533 9.75673 6.13782 9.94437C5.95031 10.132 5.84503 10.3864 5.84512 10.6517C5.84521 10.917 5.95068 11.1714 6.13832 11.3589L8.54232 13.7629C8.64447 13.8651 8.76576 13.9461 8.89925 14.0014C9.03274 14.0568 9.17582 14.0852 9.32032 14.0852C9.46482 14.0852 9.6079 14.0568 9.74139 14.0014C9.87488 13.9461 9.99617 13.8651 10.0983 13.7629L14.9783 8.88187C15.1605 8.69326 15.2613 8.44066 15.259 8.17846C15.2567 7.91627 15.1515 7.66545 14.9661 7.48005C14.7807 7.29464 14.5299 7.18947 14.2677 7.18719C14.0055 7.18491 13.7529 7.28571 13.5643 7.46786Z" fill="#F8F8F8"/>
</svg>
