<svg width="36" height="36" viewBox="0 0 36 36" fill="none" xmlns="http://www.w3.org/2000/svg">
<path d="M34.0197 1.98028C32.6983 0.658893 31.1085 -0.00119962 29.2501 1.6366e-06H6.74989C4.89034 1.6366e-06 3.30047 0.660095 1.98028 1.98028C0.658893 3.30167 -0.00119962 4.89154 1.6366e-06 6.74989V29.2501C1.6366e-06 31.1097 0.660095 32.6995 1.98028 34.0197C3.30167 35.3411 4.89154 36.0012 6.74989 36H12.0006C12.343 36 12.6006 35.988 12.7736 35.964C12.9751 35.9242 13.1569 35.8167 13.289 35.6594C13.4607 35.4793 13.5466 35.218 13.5466 34.8756L13.534 33.2809C13.5268 32.2647 13.5232 31.4598 13.5232 30.8664L12.9826 30.9601C12.6403 31.0226 12.2072 31.0502 11.6835 31.043C11.137 31.0325 10.5922 30.9777 10.0546 30.879C9.48174 30.7751 8.94261 30.534 8.48331 30.1763C8.00121 29.8117 7.64167 29.3089 7.45263 28.7348L7.21838 28.1942C7.02019 27.7682 6.7722 27.3672 6.47961 26.9995C6.14325 26.5623 5.8033 26.2656 5.45973 26.1094L5.29756 25.9923C5.18495 25.9107 5.08216 25.8164 4.99124 25.7112C4.9044 25.6135 4.83327 25.5028 4.78042 25.3833C4.73357 25.2727 4.77261 25.1826 4.89754 25.113C5.02248 25.0409 5.24951 25.0055 5.57866 25.0067L6.04715 25.0787C6.35948 25.14 6.74568 25.3268 7.20577 25.6391C7.67076 25.9561 8.05919 26.3729 8.34276 26.859C8.70314 27.4981 9.1368 27.9864 9.64373 28.3239C10.1519 28.6603 10.6636 28.8285 11.1789 28.8285C11.6943 28.8285 12.1399 28.7894 12.5159 28.7113C12.8801 28.6359 13.2339 28.5173 13.5701 28.3582C13.7106 27.3119 14.0932 26.507 14.7179 25.9436C13.9078 25.8636 13.1049 25.7226 12.3159 25.522C11.5461 25.3108 10.8057 25.0039 10.1122 24.6084C9.3865 24.2133 8.74549 23.6795 8.22564 23.0372C7.72591 22.4125 7.31568 21.5927 6.99495 20.5776C6.67541 19.5613 6.51564 18.3889 6.51564 17.0603C6.51564 15.1707 7.13249 13.561 8.36619 12.2312C7.78958 10.8102 7.84424 9.21728 8.53016 7.45263C8.98423 7.31088 9.65634 7.41599 10.5465 7.76796C11.4366 8.11993 12.0889 8.42024 12.5033 8.6689C12.9178 8.92117 13.2499 9.13259 13.4998 9.30317C14.9645 8.89476 16.4785 8.68982 17.9991 8.69413C19.5463 8.69413 21.0467 8.89714 22.5002 9.30317L23.3904 8.74098C24.0751 8.32991 24.7973 7.9848 25.5472 7.7103C26.3749 7.39797 27.008 7.31208 27.4464 7.45263C28.1492 9.21848 28.211 10.812 27.632 12.233C28.8669 13.5604 29.4844 15.1701 29.4844 17.0621C29.4844 18.3907 29.324 19.5661 29.0033 20.5884C28.6837 21.6119 28.2699 22.4324 27.7617 23.0498C27.2312 23.6823 26.5879 24.2108 25.8644 24.6084C25.1076 25.0301 24.373 25.3346 23.6606 25.522C22.8718 25.7232 22.0689 25.8648 21.2587 25.9454C22.0696 26.6482 22.4756 27.7569 22.4768 29.2717V34.8756C22.4768 35.1399 22.5158 35.3543 22.5939 35.5189C22.6304 35.5979 22.6823 35.6688 22.7467 35.7273C22.8111 35.7858 22.8866 35.8307 22.9687 35.8594C23.1405 35.9219 23.2931 35.9604 23.4264 35.9748C23.5597 35.9916 23.7507 35.9994 23.9994 35.9982H29.2501C31.1097 35.9982 32.6995 35.3381 34.0197 34.0179C35.3399 32.6977 36 31.1079 36 29.2483V6.74989C36 4.89034 35.3411 3.30047 34.0197 1.98028Z" fill="#F8F8F8"/>
</svg>
