<svg width="36" height="36" viewBox="0 0 36 36" fill="none" xmlns="http://www.w3.org/2000/svg">
<path d="M29.9993 0H6.00075C4.41071 0.00474818 2.88716 0.638493 1.76282 1.76282C0.638493 2.88716 0.00474818 4.41071 0 6.00075L0 29.9993C0 33.3 2.7 36 6.00075 36H29.9993C33.3022 36 36 33.3 36 29.9993V6.00075C35.9958 4.41053 35.3623 2.88663 34.2378 1.76217C33.1134 0.637713 31.5895 0.00415746 29.9993 0ZM9 9H27C27.324 9.0015 27.6308 9.0675 27.9202 9.198L18 20.7698L8.07975 9.198C8.36911 9.06785 8.68272 9.00038 9 9ZM6.75 24.75V11.25L6.7545 11.1082L13.3515 18.8055L6.8265 25.3305C6.77582 25.1412 6.75011 24.946 6.75 24.75ZM27 27H9C8.8005 27 8.607 26.9745 8.4195 26.9235L14.823 20.52L18.0023 24.228L21.1815 20.52L27.585 26.9235C27.3957 26.9742 27.2005 26.9999 27.0045 27H27ZM29.25 24.75C29.25 24.9495 29.2245 25.143 29.1735 25.3305L22.6485 18.8055L29.2455 11.1082L29.25 11.25V24.75Z" fill="#F8F8F8"/>
</svg>
