<svg width="36" height="36" viewBox="0 0 36 36" fill="none" xmlns="http://www.w3.org/2000/svg">
<path d="M5.14286 0C2.30625 0 0 2.30625 0 5.14286V30.8571C0 33.6937 2.30625 36 5.14286 36H30.8571C33.6937 36 36 33.6937 36 30.8571V5.14286C36 2.30625 33.6937 0 30.8571 0H5.14286ZM12.2143 7.77054C13.0018 7.55357 13.8295 7.96339 14.1429 8.71875L15.7741 12.6321C16.0473 13.2991 15.8625 14.0625 15.3 14.5205L13.5241 15.967C14.8259 18.8438 17.1 21.1902 19.9205 22.5884L21.4714 20.692C21.9295 20.1375 22.6929 19.9446 23.3598 20.2179L27.2732 21.8491C28.0286 22.1625 28.4304 22.9902 28.2214 23.7777L28.1571 24.0027C27.45 26.5982 24.9348 28.8161 21.8732 28.1652C14.842 26.6786 9.31339 21.142 7.81875 14.1107C7.16786 11.0491 9.38571 8.53393 11.9813 7.82679L12.2062 7.7625L12.2143 7.77054Z" fill="#F8F8F8"/>
</svg>
