<svg width="24" height="13" viewBox="0 0 24 13" fill="none" xmlns="http://www.w3.org/2000/svg">
<path d="M17.3658 6.07019L13.3356 0H15.8566L17.3326 2.17266C17.8302 2.919 18.2448 3.61558 18.6926 4.44484L21.5121 0H23.9833L20.0195 6.05361L23.9999 12.1238H21.4955L20.1356 10.117C19.6048 9.30431 19.1736 8.57456 18.6926 7.69554L15.7405 12.1238H13.2527L17.3658 6.07019Z" fill="#F8F8F8"/>
<path d="M0 7.69554V0H2.12291V7.56286C2.12291 9.30431 3.06827 10.2663 4.79313 10.2663C6.51799 10.2663 7.47993 9.28772 7.47993 7.56286V0H9.60284V7.69554C9.60284 10.5316 7.7453 12.3228 4.79313 12.3228C1.85754 12.3228 0 10.5482 0 7.69554Z" fill="#F8F8F8"/>
</svg>
