<svg width="24" height="24" viewBox="0 0 24 24" fill="none" xmlns="http://www.w3.org/2000/svg">
<path d="M21.6 0H2.4C1.0764 0 0 1.196 0 2.66667V21.3333C0 22.804 1.0764 24 2.4 24H21.6C22.9236 24 24 22.804 24 21.3333V2.66667C24 1.196 22.9236 0 21.6 0ZM2.4 21.3333V5.33333H21.6L21.6024 21.3333H2.4Z" fill="#F8F8F8"/>
<path d="M8.75211 8.39062L4.30371 13.3333L8.75211 18.276L10.4489 16.3906L7.69731 13.3333L10.4489 10.276L8.75211 8.39062ZM15.2489 8.39062L13.5521 10.276L16.3037 13.3333L13.5521 16.3906L15.2489 18.276L19.6973 13.3333L15.2489 8.39062Z" fill="#F8F8F8"/>
</svg>
