<svg width="801" height="802" viewBox="0 0 801 802" fill="none" xmlns="http://www.w3.org/2000/svg">
<line x1="801" y1="51" x2="1" y2="51.0001" stroke="#F8F8F8" stroke-width="100"/>
<line x1="50" y1="545" x2="50" y2="0.999998" stroke="#F8F8F8" stroke-width="100"/>
<line x1="801" y1="752" x2="257" y2="752" stroke="#F8F8F8" stroke-width="100"/>
<line x1="751" y1="0.999993" x2="751" y2="801" stroke="#F8F8F8" stroke-width="100"/>
<path d="M180 802V290H198.5L202 344C220 303 254.5 284 296 284C366.5 284 406.5 339 406.5 410C406.5 481 366.5 536 296 536C253.5 536 220.5 517 203 478V802H180ZM203.5 410C203.5 470.5 236 515 293.5 515C350.5 515 383 470.5 383 410C383 349 350.5 305 293.5 305C236 305 203.5 349 203.5 410Z" fill="#F8F8F8"/>
<path d="M492 530H469V169H492V424.5L622.5 290H652L559 386L653 530H626.5L543.5 401.5L492 455V530Z" fill="#F8F8F8"/>
<path d="M286.55 612.94H273.74V631H266.88V580.39H286.55C296.49 580.39 302.86 586.9 302.86 596.63C302.86 606.08 296.42 612.94 286.55 612.94ZM285.36 586.55H273.74V606.78H285.08C291.87 606.78 295.65 602.79 295.65 596.56C295.65 590.19 291.8 586.55 285.36 586.55ZM317.49 631H310.63V580.39H329.74C340.59 580.39 347.03 586.13 347.03 595.58C347.03 602.58 343.53 607.62 337.23 609.65L347.52 631H339.89L330.44 610.98H317.49V631ZM317.49 586.55V604.89H329.81C336.18 604.89 339.82 601.46 339.82 595.65C339.82 589.77 336.04 586.55 329.74 586.55H317.49ZM401.866 605.66C401.866 621.06 391.786 631.84 377.436 631.84C363.156 631.84 353.216 621.06 353.216 605.66C353.216 590.33 363.226 579.48 377.506 579.48C391.856 579.48 401.866 590.26 401.866 605.66ZM394.656 605.66C394.656 593.9 387.796 586.13 377.506 586.13C367.216 586.13 360.426 593.9 360.426 605.66C360.426 617.42 367.216 625.26 377.506 625.26C387.796 625.26 394.656 617.35 394.656 605.66ZM406.16 616.93V614.41H412.81V616.93C412.81 621.9 415.54 625.47 421.14 625.47C426.88 625.47 429.4 621.97 429.4 616.72V580.39H436.26V617C436.26 626.1 430.17 631.84 421.14 631.84C411.48 631.84 406.16 625.68 406.16 616.93ZM478.561 631H447.691V580.39H478.561V586.69H454.551V602.51H476.181V608.6H454.551V624.63H478.561V631ZM509.501 631.77C495.081 631.77 485.491 621.41 485.491 605.73C485.491 590.12 495.361 579.55 509.851 579.55C521.261 579.55 530.011 586.34 531.901 596.7H524.551C522.661 590.12 516.991 586.13 509.641 586.13C499.421 586.13 492.701 593.83 492.701 605.66C492.701 617.49 499.421 625.19 509.641 625.19C517.061 625.19 522.941 621.2 524.831 614.97H532.111C529.941 625.05 520.911 631.77 509.501 631.77ZM532.82 586.69V580.39H570.13V586.69H554.94V631H548.08V586.69H532.82ZM574.086 594.04C574.086 585.36 581.086 579.48 591.516 579.48C601.176 579.48 607.406 584.87 607.966 593.62H601.036C600.686 588.58 597.116 585.64 591.446 585.64C585.076 585.64 580.946 588.86 580.946 593.83C580.946 597.89 583.256 600.34 588.016 601.46L596.346 603.42C604.606 605.31 608.806 609.79 608.806 616.93C608.806 626.03 601.736 631.84 590.956 631.84C580.666 631.84 573.806 626.45 573.386 617.77H580.386C580.526 622.6 584.586 625.68 590.956 625.68C597.676 625.68 601.946 622.53 601.946 617.49C601.946 613.5 599.776 610.98 594.946 609.86L586.616 607.97C578.356 606.08 574.086 601.32 574.086 594.04Z" fill="#F8F8F8"/>
<line x1="158" y1="290" x2="158" y2="802" stroke="#F8F8F8" stroke-width="20"/>
<line x1="447" y1="169" x2="447" y2="530" stroke="#F8F8F8" stroke-width="20"/>
</svg>
