<svg width="2031" height="1082" viewBox="0 0 2031 1082" fill="none" xmlns="http://www.w3.org/2000/svg">
<g clip-path="url(#clip0_98_15)" filter="url(#filter0_f_98_15)">
<path d="M1863 285L1790 663" stroke="#454953" stroke-opacity="0.8"/>
<path d="M1869.4 279.378L2029.48 331.721" stroke="#454953" stroke-opacity="0.8"/>
<path d="M2029.73 371.728L1788.41 657.946" stroke="#454953" stroke-opacity="0.8"/>
<path d="M1794 661L2030 786" stroke="#454953" stroke-opacity="0.8"/>
<path d="M1502 466L1787 657" stroke="#454953" stroke-opacity="0.8"/>
<path d="M1497.04 466.631L1508.99 970.365" stroke="#454953" stroke-opacity="0.8"/>
<path d="M1236.29 849.474L1508.67 969.879" stroke="#454953" stroke-opacity="0.8"/>
<path d="M1229.38 849.725L1344.07 1080.71" stroke="#454953" stroke-opacity="0.8"/>
<path d="M890.02 483.47L1222.13 842.227" stroke="#454953" stroke-opacity="0.8"/>
<path d="M784.043 1081.22L600.069 747.035" stroke="#454953" stroke-opacity="0.8"/>
<path d="M142.028 1000.93L600.272 746.297" stroke="#454953" stroke-opacity="0.8"/>
<path d="M600.104 1120.82L53.0439 651.354" stroke="#454953" stroke-opacity="0.8"/>
<path d="M0.311035 827.708L48.0968 655.702" stroke="#454953" stroke-opacity="0.8"/>
<path d="M0.505371 692.274L48.2909 655.416" stroke="#454953" stroke-opacity="0.8"/>
<path d="M-1.0752 525.405L46.7103 640.895" stroke="#454953" stroke-opacity="0.8"/>
<path d="M289.633 -37.1273L634.298 215.57" stroke="#454953" stroke-opacity="0.8"/>
<path d="M773.006 -7.30524L634.428 213.846" stroke="#454953" stroke-opacity="0.8"/>
<path d="M884.469 484.221L638.375 216.383" stroke="#454953" stroke-opacity="0.8"/>
<path d="M-20 1097.81L184.345 773.517" stroke="#454953" stroke-opacity="0.8"/>
<path d="M189.163 766.083L385.084 517.903" stroke="#454953" stroke-opacity="0.8"/>
<path d="M57.9702 645.518L387.69 510.37" stroke="#454953" stroke-opacity="0.8"/>
<path d="M892.102 483.572L404.22 507.016" stroke="#454953" stroke-opacity="0.8"/>
<path d="M385.098 510.514L638.361 215.646" stroke="#454953" stroke-opacity="0.8"/>
<path d="M600.178 746.363L889.28 480.981" stroke="#454953" stroke-opacity="0.8"/>
<path d="M1357.64 1080.5L1510.55 974.836" stroke="#454953" stroke-opacity="0.8"/>
<path d="M1701.71 1088.8L1510.57 970.852" stroke="#454953" stroke-opacity="0.8"/>
<path d="M1857.07 273.017L1699.38 196.842" stroke="#454953" stroke-opacity="0.8"/>
<path d="M1868.72 273.537L1904.56 90.5803" stroke="#454953" stroke-opacity="0.8"/>
<path d="M2028.91 236.911L1911.83 88.5715" stroke="#454953" stroke-opacity="0.8"/>
<path d="M1901.13 72.0278L1855.95 -53.5037" stroke="#454953" stroke-opacity="0.8"/>
<path d="M1897.72 78.9082L1567.07 -53.1848" stroke="#454953" stroke-opacity="0.8"/>
<path d="M1590.15 -53.9177L1702.48 196.122" stroke="#454953" stroke-opacity="0.8"/>
<path d="M1305.43 151.578L1699.66 195.808" stroke="#454953" stroke-opacity="0.8"/>
<path d="M1302.7 141.827L1613.94 -54.1532" stroke="#454953" stroke-opacity="0.8"/>
<path d="M891.691 480.963L1290.7 151.693" stroke="#454953" stroke-opacity="0.8"/>
<path d="M896.789 480.845L1496.5 466.16" stroke="#454953" stroke-opacity="0.8"/>
<path d="M1291.48 151.81L1496.95 461.422" stroke="#454953" stroke-opacity="0.8"/>
<path d="M1167.21 -10.4013L1284.28 139.491" stroke="#454953" stroke-opacity="0.8"/>
<path d="M1787.5 670.708L1702.51 1088.44" stroke="#454953" stroke-opacity="0.8"/>
<path d="M1793.17 658.682L1511.24 970.752" stroke="#454953" stroke-opacity="0.8"/>
<path d="M2029.68 786.493L1702.35 1088.73" stroke="#454953" stroke-opacity="0.8"/>
<path d="M1866.49 290.848C1873.09 290.848 1878.44 285.348 1878.44 278.562C1878.44 271.776 1873.09 266.276 1866.49 266.276C1859.9 266.276 1854.55 271.776 1854.55 278.562C1854.55 285.348 1859.9 290.848 1866.49 290.848Z" fill="#454953"/>
<path d="M1866.49 266.776C1872.8 266.776 1877.94 272.039 1877.94 278.562C1877.94 285.085 1872.8 290.348 1866.49 290.348C1860.19 290.348 1855.05 285.085 1855.05 278.562C1855.05 272.039 1860.19 266.776 1866.49 266.776Z" stroke="#454953" stroke-opacity="0.8"/>
<path d="M1294.62 164.405C1303.2 164.405 1310.15 157.254 1310.15 148.433C1310.15 139.612 1303.2 132.461 1294.62 132.461C1286.05 132.461 1279.09 139.612 1279.09 148.433C1279.09 157.254 1286.05 164.405 1294.62 164.405Z" fill="#454953"/>
<path d="M888.439 498.589C895.696 498.589 901.58 492.539 901.58 485.074C901.58 477.611 895.696 471.56 888.439 471.56C881.181 471.56 875.298 477.611 875.298 485.074C875.298 492.539 881.181 498.589 888.439 498.589Z" fill="#454953"/>
<path d="M600.532 759.056C608.449 759.056 614.867 752.456 614.867 744.314C614.867 736.171 608.449 729.57 600.532 729.57C592.614 729.57 586.196 736.171 586.196 744.314C586.196 752.456 592.614 759.056 600.532 759.056Z" fill="#454953"/>
<path d="M184.797 783.629C191.395 783.629 196.744 778.129 196.744 771.343C196.744 764.557 191.395 759.057 184.797 759.057C178.2 759.057 172.851 764.557 172.851 771.343C172.851 778.129 178.2 783.629 184.797 783.629Z" fill="#454953"/>
<path d="M389.08 525.619C397.657 525.619 404.61 518.468 404.61 509.647C404.61 500.826 397.657 493.676 389.08 493.676C380.503 493.676 373.55 500.826 373.55 509.647C373.55 518.468 380.503 525.619 389.08 525.619Z" fill="#454953"/>
<path d="M637.565 228.292C644.822 228.292 650.706 222.241 650.706 214.778C650.706 207.314 644.822 201.263 637.565 201.263C630.307 201.263 624.424 207.314 624.424 214.778C624.424 222.241 630.307 228.292 637.565 228.292Z" fill="#454953"/>
<path d="M1788 670.596C1794.6 670.596 1799.95 665.096 1799.95 658.31C1799.95 651.525 1794.6 646.024 1788 646.024C1781.41 646.024 1776.06 651.525 1776.06 658.31C1776.06 665.096 1781.41 670.596 1788 670.596Z" fill="#454953"/>
<path d="M1788 646.524C1794.31 646.524 1799.45 651.788 1799.45 658.31C1799.45 664.833 1794.31 670.096 1788 670.096C1781.7 670.096 1776.56 664.833 1776.56 658.31C1776.56 651.788 1781.7 646.524 1788 646.524Z" stroke="#454953" stroke-opacity="0.8"/>
<path d="M1510.85 982.665C1517.45 982.665 1522.8 977.164 1522.8 970.379C1522.8 963.593 1517.45 958.093 1510.85 958.093C1504.26 958.093 1498.91 963.593 1498.91 970.379C1498.91 977.164 1504.26 982.665 1510.85 982.665Z" fill="#454953"/>
<path d="M1510.85 958.593C1517.16 958.593 1522.3 963.856 1522.3 970.379C1522.3 976.901 1517.16 982.165 1510.85 982.165C1504.55 982.165 1499.41 976.902 1499.41 970.379C1499.41 963.856 1504.55 958.593 1510.85 958.593Z" stroke="#454953" stroke-opacity="0.8"/>
<path d="M1347.18 1095.69C1357.08 1095.69 1365.1 1087.45 1365.1 1077.27C1365.1 1067.09 1357.08 1058.84 1347.18 1058.84C1337.28 1058.84 1329.26 1067.09 1329.26 1077.27C1329.26 1087.45 1337.28 1095.69 1347.18 1095.69Z" fill="#454953"/>
<path d="M1347.18 1059.34C1356.79 1059.34 1364.6 1067.35 1364.6 1077.27C1364.6 1087.18 1356.79 1095.19 1347.18 1095.19C1337.57 1095.19 1329.76 1087.18 1329.76 1077.27C1329.76 1067.35 1337.57 1059.34 1347.18 1059.34Z" stroke="#454953" stroke-opacity="0.8"/>
<path d="M1700.8 1105.54C1710.7 1105.54 1718.72 1097.28 1718.72 1087.11C1718.72 1076.93 1710.7 1068.67 1700.8 1068.67C1690.9 1068.67 1682.88 1076.93 1682.88 1087.11C1682.88 1097.28 1690.9 1105.54 1700.8 1105.54Z" fill="#454953"/>
<g filter="url(#filter1_ddd_98_15)">
<path d="M796.206 1080.47L1226.28 849.487Z" fill="#F8F8F8"/>
<path d="M796.206 1080.47L1226.28 849.487" stroke="#F8F8F8"/>
</g>
<g filter="url(#filter2_ddd_98_15)">
<path d="M287.705 -36.513L53.8921 633.915Z" fill="#F8F8F8"/>
<path d="M287.705 -36.513L53.8921 633.915" stroke="#F8F8F8"/>
</g>
<g filter="url(#filter3_ddd_98_15)">
<path d="M1503.27 451.561L1696.8 200.922Z" fill="#F8F8F8"/>
<path d="M1503.27 451.561L1696.8 200.922" stroke="#F8F8F8"/>
</g>
<g filter="url(#filter4_ddd_98_15)">
<path d="M1905.05 84.2703L1702.24 196.826Z" fill="#F8F8F8"/>
<path d="M1905.05 84.2703L1702.24 196.826" stroke="#F8F8F8"/>
</g>
<g filter="url(#filter5_ddd_98_15)">
<path d="M1228.48 849.658L1496.07 461.415Z" fill="#F8F8F8"/>
<path d="M1228.48 849.658L1496.07 461.415" stroke="#F8F8F8"/>
</g>
<g filter="url(#filter6_ddd_98_15)">
<path d="M1911.76 74.0676L1970.14 -53.9206" stroke="#F8F8F8" stroke-opacity="0.8" shape-rendering="crispEdges"/>
</g>
<g filter="url(#filter7_ddd_98_15)">
<path d="M172.446 1120.54L52.8706 655.986Z" fill="#F8F8F8"/>
<path d="M172.446 1120.54L52.8706 655.986" stroke="#F8F8F8"/>
</g>
<g filter="url(#filter8_ddd_98_15)">
<path d="M141.759 1007.78C146.725 1007.78 150.75 1003.73 150.75 998.74C150.75 993.755 146.725 989.711 141.759 989.711C136.794 989.711 132.769 993.755 132.769 998.74C132.769 1003.73 136.794 1007.78 141.759 1007.78Z" fill="#F8F8F8"/>
</g>
<g filter="url(#filter9_ddd_98_15)">
<path d="M49.8037 663.223C58.3808 663.223 65.334 656.072 65.334 647.252C65.334 638.43 58.3808 631.28 49.8037 631.28C41.2266 631.28 34.2734 638.43 34.2734 647.252C34.2734 656.072 41.2266 663.223 49.8037 663.223Z" fill="#F8F8F8"/>
<path d="M49.8037 631.78C58.0916 631.78 64.834 638.694 64.834 647.252C64.8339 655.81 58.0915 662.723 49.8037 662.723C41.5159 662.723 34.7736 655.81 34.7734 647.252C34.7734 638.694 41.5158 631.78 49.8037 631.78Z" stroke="#F8F8F8"/>
</g>
<g filter="url(#filter10_ddd_98_15)">
<path d="M1905.08 95.6027C1911.68 95.6027 1917.02 90.1019 1917.02 83.3165C1917.02 76.531 1911.68 71.0303 1905.08 71.0303C1898.48 71.0303 1893.13 76.531 1893.13 83.3165C1893.13 90.1019 1898.48 95.6027 1905.08 95.6027Z" fill="#F8F8F8"/>
</g>
<g filter="url(#filter11_ddd_98_15)">
<path d="M1496.51 474.017C1503.11 474.017 1508.46 468.517 1508.46 461.731C1508.46 454.946 1503.11 449.445 1496.51 449.445C1489.91 449.445 1484.56 454.946 1484.56 461.731C1484.56 468.517 1489.91 474.017 1496.51 474.017Z" fill="#F8F8F8"/>
<path d="M1496.51 449.945C1502.82 449.945 1507.96 455.209 1507.96 461.731C1507.96 468.253 1502.82 473.517 1496.51 473.517C1490.2 473.517 1485.06 468.254 1485.06 461.731C1485.06 455.209 1490.2 449.945 1496.51 449.945Z" stroke="#F8F8F8"/>
</g>
<g filter="url(#filter12_ddd_98_15)">
<path d="M1228.91 862.26C1236.83 862.26 1243.25 855.66 1243.25 847.517C1243.25 839.375 1236.83 832.773 1228.91 832.773C1220.99 832.773 1214.57 839.375 1214.57 847.517C1214.57 855.66 1220.99 862.26 1228.91 862.26Z" fill="#F8F8F8"/>
<path d="M1228.91 833.273C1236.54 833.273 1242.75 839.638 1242.75 847.517C1242.75 855.397 1236.54 861.761 1228.91 861.761C1221.28 861.761 1215.07 855.397 1215.07 847.517C1215.07 839.638 1221.28 833.273 1228.91 833.273Z" stroke="#F8F8F8"/>
</g>
<g filter="url(#filter13_ddd_98_15)">
<path d="M789.284 1098.15C797.202 1098.15 803.62 1091.55 803.62 1083.41C803.62 1075.26 797.202 1068.66 789.284 1068.66C781.367 1068.66 774.949 1075.26 774.949 1083.41C774.949 1091.55 781.367 1098.15 789.284 1098.15Z" fill="#F8F8F8"/>
<path d="M789.284 1069.16C796.913 1069.16 803.12 1075.53 803.12 1083.41C803.12 1091.29 796.913 1097.65 789.284 1097.65C781.656 1097.65 775.449 1091.29 775.449 1083.41C775.449 1075.53 781.656 1069.16 789.284 1069.16Z" stroke="#F8F8F8"/>
</g>
<g filter="url(#filter14_ddd_98_15)">
<path d="M1699.6 203.721C1703.56 203.721 1706.77 200.42 1706.77 196.349C1706.77 192.277 1703.56 188.977 1699.6 188.977C1695.65 188.977 1692.44 192.277 1692.44 196.349C1692.44 200.42 1695.65 203.721 1699.6 203.721Z" fill="#F8F8F8"/>
<path d="M1699.6 189.477C1703.27 189.477 1706.27 192.54 1706.27 196.348C1706.27 200.157 1703.27 203.221 1699.6 203.221C1695.94 203.221 1692.94 200.157 1692.94 196.348C1692.94 192.54 1695.94 189.477 1699.6 189.477Z" stroke="#F8F8F8"/>
</g>
</g>
<defs>
<filter id="filter0_f_98_15" x="0" y="0" width="2031" height="1082" filterUnits="userSpaceOnUse" color-interpolation-filters="sRGB">
<feFlood flood-opacity="0" result="BackgroundImageFix"/>
<feBlend mode="normal" in="SourceGraphic" in2="BackgroundImageFix" result="shape"/>
<feGaussianBlur stdDeviation="0.5" result="effect1_foregroundBlur_98_15"/>
</filter>
<filter id="filter1_ddd_98_15" x="765.969" y="819.046" width="490.544" height="291.862" filterUnits="userSpaceOnUse" color-interpolation-filters="sRGB">
<feFlood flood-opacity="0" result="BackgroundImageFix"/>
<feColorMatrix in="SourceAlpha" type="matrix" values="0 0 0 0 0 0 0 0 0 0 0 0 0 0 0 0 0 0 127 0" result="hardAlpha"/>
<feOffset/>
<feGaussianBlur stdDeviation="2"/>
<feComposite in2="hardAlpha" operator="out"/>
<feColorMatrix type="matrix" values="0 0 0 0 0.498039 0 0 0 0 0.8 0 0 0 0 0.360784 0 0 0 1 0"/>
<feBlend mode="normal" in2="BackgroundImageFix" result="effect1_dropShadow_98_15"/>
<feColorMatrix in="SourceAlpha" type="matrix" values="0 0 0 0 0 0 0 0 0 0 0 0 0 0 0 0 0 0 127 0" result="hardAlpha"/>
<feOffset/>
<feGaussianBlur stdDeviation="6"/>
<feComposite in2="hardAlpha" operator="out"/>
<feColorMatrix type="matrix" values="0 0 0 0 0.498039 0 0 0 0 0.8 0 0 0 0 0.360784 0 0 0 0.7 0"/>
<feBlend mode="normal" in2="effect1_dropShadow_98_15" result="effect2_dropShadow_98_15"/>
<feColorMatrix in="SourceAlpha" type="matrix" values="0 0 0 0 0 0 0 0 0 0 0 0 0 0 0 0 0 0 127 0" result="hardAlpha"/>
<feOffset/>
<feGaussianBlur stdDeviation="15"/>
<feComposite in2="hardAlpha" operator="out"/>
<feColorMatrix type="matrix" values="0 0 0 0 0.498039 0 0 0 0 0.8 0 0 0 0 0.360784 0 0 0 0.4 0"/>
<feBlend mode="normal" in2="effect2_dropShadow_98_15" result="effect3_dropShadow_98_15"/>
<feBlend mode="normal" in="SourceGraphic" in2="effect3_dropShadow_98_15" result="shape"/>
</filter>
<filter id="filter2_ddd_98_15" x="23.4199" y="-66.6777" width="294.757" height="730.757" filterUnits="userSpaceOnUse" color-interpolation-filters="sRGB">
<feFlood flood-opacity="0" result="BackgroundImageFix"/>
<feColorMatrix in="SourceAlpha" type="matrix" values="0 0 0 0 0 0 0 0 0 0 0 0 0 0 0 0 0 0 127 0" result="hardAlpha"/>
<feOffset/>
<feGaussianBlur stdDeviation="2"/>
<feComposite in2="hardAlpha" operator="out"/>
<feColorMatrix type="matrix" values="0 0 0 0 0.498039 0 0 0 0 0.8 0 0 0 0 0.360784 0 0 0 1 0"/>
<feBlend mode="normal" in2="BackgroundImageFix" result="effect1_dropShadow_98_15"/>
<feColorMatrix in="SourceAlpha" type="matrix" values="0 0 0 0 0 0 0 0 0 0 0 0 0 0 0 0 0 0 127 0" result="hardAlpha"/>
<feOffset/>
<feGaussianBlur stdDeviation="6"/>
<feComposite in2="hardAlpha" operator="out"/>
<feColorMatrix type="matrix" values="0 0 0 0 0.498039 0 0 0 0 0.8 0 0 0 0 0.360784 0 0 0 0.7 0"/>
<feBlend mode="normal" in2="effect1_dropShadow_98_15" result="effect2_dropShadow_98_15"/>
<feColorMatrix in="SourceAlpha" type="matrix" values="0 0 0 0 0 0 0 0 0 0 0 0 0 0 0 0 0 0 127 0" result="hardAlpha"/>
<feOffset/>
<feGaussianBlur stdDeviation="15"/>
<feComposite in2="hardAlpha" operator="out"/>
<feColorMatrix type="matrix" values="0 0 0 0 0.498039 0 0 0 0 0.8 0 0 0 0 0.360784 0 0 0 0.4 0"/>
<feBlend mode="normal" in2="effect2_dropShadow_98_15" result="effect3_dropShadow_98_15"/>
<feBlend mode="normal" in="SourceGraphic" in2="effect3_dropShadow_98_15" result="shape"/>
</filter>
<filter id="filter3_ddd_98_15" x="1472.87" y="170.617" width="254.322" height="311.25" filterUnits="userSpaceOnUse" color-interpolation-filters="sRGB">
<feFlood flood-opacity="0" result="BackgroundImageFix"/>
<feColorMatrix in="SourceAlpha" type="matrix" values="0 0 0 0 0 0 0 0 0 0 0 0 0 0 0 0 0 0 127 0" result="hardAlpha"/>
<feOffset/>
<feGaussianBlur stdDeviation="2"/>
<feComposite in2="hardAlpha" operator="out"/>
<feColorMatrix type="matrix" values="0 0 0 0 0.498039 0 0 0 0 0.8 0 0 0 0 0.360784 0 0 0 1 0"/>
<feBlend mode="normal" in2="BackgroundImageFix" result="effect1_dropShadow_98_15"/>
<feColorMatrix in="SourceAlpha" type="matrix" values="0 0 0 0 0 0 0 0 0 0 0 0 0 0 0 0 0 0 127 0" result="hardAlpha"/>
<feOffset/>
<feGaussianBlur stdDeviation="6"/>
<feComposite in2="hardAlpha" operator="out"/>
<feColorMatrix type="matrix" values="0 0 0 0 0.498039 0 0 0 0 0.8 0 0 0 0 0.360784 0 0 0 0.7 0"/>
<feBlend mode="normal" in2="effect1_dropShadow_98_15" result="effect2_dropShadow_98_15"/>
<feColorMatrix in="SourceAlpha" type="matrix" values="0 0 0 0 0 0 0 0 0 0 0 0 0 0 0 0 0 0 127 0" result="hardAlpha"/>
<feOffset/>
<feGaussianBlur stdDeviation="15"/>
<feComposite in2="hardAlpha" operator="out"/>
<feColorMatrix type="matrix" values="0 0 0 0 0.498039 0 0 0 0 0.8 0 0 0 0 0.360784 0 0 0 0.4 0"/>
<feBlend mode="normal" in2="effect2_dropShadow_98_15" result="effect3_dropShadow_98_15"/>
<feBlend mode="normal" in="SourceGraphic" in2="effect3_dropShadow_98_15" result="shape"/>
</filter>
<filter id="filter4_ddd_98_15" x="1671.99" y="53.8331" width="263.295" height="173.43" filterUnits="userSpaceOnUse" color-interpolation-filters="sRGB">
<feFlood flood-opacity="0" result="BackgroundImageFix"/>
<feColorMatrix in="SourceAlpha" type="matrix" values="0 0 0 0 0 0 0 0 0 0 0 0 0 0 0 0 0 0 127 0" result="hardAlpha"/>
<feOffset/>
<feGaussianBlur stdDeviation="2"/>
<feComposite in2="hardAlpha" operator="out"/>
<feColorMatrix type="matrix" values="0 0 0 0 0.498039 0 0 0 0 0.8 0 0 0 0 0.360784 0 0 0 1 0"/>
<feBlend mode="normal" in2="BackgroundImageFix" result="effect1_dropShadow_98_15"/>
<feColorMatrix in="SourceAlpha" type="matrix" values="0 0 0 0 0 0 0 0 0 0 0 0 0 0 0 0 0 0 127 0" result="hardAlpha"/>
<feOffset/>
<feGaussianBlur stdDeviation="6"/>
<feComposite in2="hardAlpha" operator="out"/>
<feColorMatrix type="matrix" values="0 0 0 0 0.498039 0 0 0 0 0.8 0 0 0 0 0.360784 0 0 0 0.7 0"/>
<feBlend mode="normal" in2="effect1_dropShadow_98_15" result="effect2_dropShadow_98_15"/>
<feColorMatrix in="SourceAlpha" type="matrix" values="0 0 0 0 0 0 0 0 0 0 0 0 0 0 0 0 0 0 127 0" result="hardAlpha"/>
<feOffset/>
<feGaussianBlur stdDeviation="15"/>
<feComposite in2="hardAlpha" operator="out"/>
<feColorMatrix type="matrix" values="0 0 0 0 0.498039 0 0 0 0 0.8 0 0 0 0 0.360784 0 0 0 0.4 0"/>
<feBlend mode="normal" in2="effect2_dropShadow_98_15" result="effect3_dropShadow_98_15"/>
<feBlend mode="normal" in="SourceGraphic" in2="effect3_dropShadow_98_15" result="shape"/>
</filter>
<filter id="filter5_ddd_98_15" x="1198.07" y="431.131" width="328.413" height="448.811" filterUnits="userSpaceOnUse" color-interpolation-filters="sRGB">
<feFlood flood-opacity="0" result="BackgroundImageFix"/>
<feColorMatrix in="SourceAlpha" type="matrix" values="0 0 0 0 0 0 0 0 0 0 0 0 0 0 0 0 0 0 127 0" result="hardAlpha"/>
<feOffset/>
<feGaussianBlur stdDeviation="2"/>
<feComposite in2="hardAlpha" operator="out"/>
<feColorMatrix type="matrix" values="0 0 0 0 0.498039 0 0 0 0 0.8 0 0 0 0 0.360784 0 0 0 1 0"/>
<feBlend mode="normal" in2="BackgroundImageFix" result="effect1_dropShadow_98_15"/>
<feColorMatrix in="SourceAlpha" type="matrix" values="0 0 0 0 0 0 0 0 0 0 0 0 0 0 0 0 0 0 127 0" result="hardAlpha"/>
<feOffset/>
<feGaussianBlur stdDeviation="6"/>
<feComposite in2="hardAlpha" operator="out"/>
<feColorMatrix type="matrix" values="0 0 0 0 0.498039 0 0 0 0 0.8 0 0 0 0 0.360784 0 0 0 0.7 0"/>
<feBlend mode="normal" in2="effect1_dropShadow_98_15" result="effect2_dropShadow_98_15"/>
<feColorMatrix in="SourceAlpha" type="matrix" values="0 0 0 0 0 0 0 0 0 0 0 0 0 0 0 0 0 0 127 0" result="hardAlpha"/>
<feOffset/>
<feGaussianBlur stdDeviation="15"/>
<feComposite in2="hardAlpha" operator="out"/>
<feColorMatrix type="matrix" values="0 0 0 0 0.498039 0 0 0 0 0.8 0 0 0 0 0.360784 0 0 0 0.4 0"/>
<feBlend mode="normal" in2="effect2_dropShadow_98_15" result="effect3_dropShadow_98_15"/>
<feBlend mode="normal" in="SourceGraphic" in2="effect3_dropShadow_98_15" result="shape"/>
</filter>
<filter id="filter6_ddd_98_15" x="1881.3" y="-84.1281" width="119.29" height="188.403" filterUnits="userSpaceOnUse" color-interpolation-filters="sRGB">
<feFlood flood-opacity="0" result="BackgroundImageFix"/>
<feColorMatrix in="SourceAlpha" type="matrix" values="0 0 0 0 0 0 0 0 0 0 0 0 0 0 0 0 0 0 127 0" result="hardAlpha"/>
<feOffset/>
<feGaussianBlur stdDeviation="2"/>
<feComposite in2="hardAlpha" operator="out"/>
<feColorMatrix type="matrix" values="0 0 0 0 0.498039 0 0 0 0 0.8 0 0 0 0 0.360784 0 0 0 1 0"/>
<feBlend mode="normal" in2="BackgroundImageFix" result="effect1_dropShadow_98_15"/>
<feColorMatrix in="SourceAlpha" type="matrix" values="0 0 0 0 0 0 0 0 0 0 0 0 0 0 0 0 0 0 127 0" result="hardAlpha"/>
<feOffset/>
<feGaussianBlur stdDeviation="6"/>
<feComposite in2="hardAlpha" operator="out"/>
<feColorMatrix type="matrix" values="0 0 0 0 0.498039 0 0 0 0 0.8 0 0 0 0 0.360784 0 0 0 0.7 0"/>
<feBlend mode="normal" in2="effect1_dropShadow_98_15" result="effect2_dropShadow_98_15"/>
<feColorMatrix in="SourceAlpha" type="matrix" values="0 0 0 0 0 0 0 0 0 0 0 0 0 0 0 0 0 0 127 0" result="hardAlpha"/>
<feOffset/>
<feGaussianBlur stdDeviation="15"/>
<feComposite in2="hardAlpha" operator="out"/>
<feColorMatrix type="matrix" values="0 0 0 0 0.498039 0 0 0 0 0.8 0 0 0 0 0.360784 0 0 0 0.4 0"/>
<feBlend mode="normal" in2="effect2_dropShadow_98_15" result="effect3_dropShadow_98_15"/>
<feBlend mode="normal" in="SourceGraphic" in2="effect3_dropShadow_98_15" result="shape"/>
</filter>
<filter id="filter7_ddd_98_15" x="22.3862" y="625.862" width="180.544" height="524.802" filterUnits="userSpaceOnUse" color-interpolation-filters="sRGB">
<feFlood flood-opacity="0" result="BackgroundImageFix"/>
<feColorMatrix in="SourceAlpha" type="matrix" values="0 0 0 0 0 0 0 0 0 0 0 0 0 0 0 0 0 0 127 0" result="hardAlpha"/>
<feOffset/>
<feGaussianBlur stdDeviation="2"/>
<feComposite in2="hardAlpha" operator="out"/>
<feColorMatrix type="matrix" values="0 0 0 0 0.498039 0 0 0 0 0.8 0 0 0 0 0.360784 0 0 0 1 0"/>
<feBlend mode="normal" in2="BackgroundImageFix" result="effect1_dropShadow_98_15"/>
<feColorMatrix in="SourceAlpha" type="matrix" values="0 0 0 0 0 0 0 0 0 0 0 0 0 0 0 0 0 0 127 0" result="hardAlpha"/>
<feOffset/>
<feGaussianBlur stdDeviation="6"/>
<feComposite in2="hardAlpha" operator="out"/>
<feColorMatrix type="matrix" values="0 0 0 0 0.498039 0 0 0 0 0.8 0 0 0 0 0.360784 0 0 0 0.7 0"/>
<feBlend mode="normal" in2="effect1_dropShadow_98_15" result="effect2_dropShadow_98_15"/>
<feColorMatrix in="SourceAlpha" type="matrix" values="0 0 0 0 0 0 0 0 0 0 0 0 0 0 0 0 0 0 127 0" result="hardAlpha"/>
<feOffset/>
<feGaussianBlur stdDeviation="15"/>
<feComposite in2="hardAlpha" operator="out"/>
<feColorMatrix type="matrix" values="0 0 0 0 0.498039 0 0 0 0 0.8 0 0 0 0 0.360784 0 0 0 0.4 0"/>
<feBlend mode="normal" in2="effect2_dropShadow_98_15" result="effect3_dropShadow_98_15"/>
<feBlend mode="normal" in="SourceGraphic" in2="effect3_dropShadow_98_15" result="shape"/>
</filter>
<filter id="filter8_ddd_98_15" x="102.769" y="959.711" width="77.9814" height="78.0642" filterUnits="userSpaceOnUse" color-interpolation-filters="sRGB">
<feFlood flood-opacity="0" result="BackgroundImageFix"/>
<feColorMatrix in="SourceAlpha" type="matrix" values="0 0 0 0 0 0 0 0 0 0 0 0 0 0 0 0 0 0 127 0" result="hardAlpha"/>
<feOffset/>
<feGaussianBlur stdDeviation="2"/>
<feComposite in2="hardAlpha" operator="out"/>
<feColorMatrix type="matrix" values="0 0 0 0 0.498039 0 0 0 0 0.8 0 0 0 0 0.360784 0 0 0 1 0"/>
<feBlend mode="normal" in2="BackgroundImageFix" result="effect1_dropShadow_98_15"/>
<feColorMatrix in="SourceAlpha" type="matrix" values="0 0 0 0 0 0 0 0 0 0 0 0 0 0 0 0 0 0 127 0" result="hardAlpha"/>
<feOffset/>
<feGaussianBlur stdDeviation="6"/>
<feComposite in2="hardAlpha" operator="out"/>
<feColorMatrix type="matrix" values="0 0 0 0 0.498039 0 0 0 0 0.8 0 0 0 0 0.360784 0 0 0 0.7 0"/>
<feBlend mode="normal" in2="effect1_dropShadow_98_15" result="effect2_dropShadow_98_15"/>
<feColorMatrix in="SourceAlpha" type="matrix" values="0 0 0 0 0 0 0 0 0 0 0 0 0 0 0 0 0 0 127 0" result="hardAlpha"/>
<feOffset/>
<feGaussianBlur stdDeviation="15"/>
<feComposite in2="hardAlpha" operator="out"/>
<feColorMatrix type="matrix" values="0 0 0 0 0.498039 0 0 0 0 0.8 0 0 0 0 0.360784 0 0 0 0.4 0"/>
<feBlend mode="normal" in2="effect2_dropShadow_98_15" result="effect3_dropShadow_98_15"/>
<feBlend mode="normal" in="SourceGraphic" in2="effect3_dropShadow_98_15" result="shape"/>
</filter>
<filter id="filter9_ddd_98_15" x="4.27344" y="601.28" width="91.0605" height="91.9437" filterUnits="userSpaceOnUse" color-interpolation-filters="sRGB">
<feFlood flood-opacity="0" result="BackgroundImageFix"/>
<feColorMatrix in="SourceAlpha" type="matrix" values="0 0 0 0 0 0 0 0 0 0 0 0 0 0 0 0 0 0 127 0" result="hardAlpha"/>
<feOffset/>
<feGaussianBlur stdDeviation="2"/>
<feComposite in2="hardAlpha" operator="out"/>
<feColorMatrix type="matrix" values="0 0 0 0 0.498039 0 0 0 0 0.8 0 0 0 0 0.360784 0 0 0 1 0"/>
<feBlend mode="normal" in2="BackgroundImageFix" result="effect1_dropShadow_98_15"/>
<feColorMatrix in="SourceAlpha" type="matrix" values="0 0 0 0 0 0 0 0 0 0 0 0 0 0 0 0 0 0 127 0" result="hardAlpha"/>
<feOffset/>
<feGaussianBlur stdDeviation="6"/>
<feComposite in2="hardAlpha" operator="out"/>
<feColorMatrix type="matrix" values="0 0 0 0 0.498039 0 0 0 0 0.8 0 0 0 0 0.360784 0 0 0 0.7 0"/>
<feBlend mode="normal" in2="effect1_dropShadow_98_15" result="effect2_dropShadow_98_15"/>
<feColorMatrix in="SourceAlpha" type="matrix" values="0 0 0 0 0 0 0 0 0 0 0 0 0 0 0 0 0 0 127 0" result="hardAlpha"/>
<feOffset/>
<feGaussianBlur stdDeviation="15"/>
<feComposite in2="hardAlpha" operator="out"/>
<feColorMatrix type="matrix" values="0 0 0 0 0.498039 0 0 0 0 0.8 0 0 0 0 0.360784 0 0 0 0.4 0"/>
<feBlend mode="normal" in2="effect2_dropShadow_98_15" result="effect3_dropShadow_98_15"/>
<feBlend mode="normal" in="SourceGraphic" in2="effect3_dropShadow_98_15" result="shape"/>
</filter>
<filter id="filter10_ddd_98_15" x="1863.13" y="41.0303" width="83.8901" height="84.5724" filterUnits="userSpaceOnUse" color-interpolation-filters="sRGB">
<feFlood flood-opacity="0" result="BackgroundImageFix"/>
<feColorMatrix in="SourceAlpha" type="matrix" values="0 0 0 0 0 0 0 0 0 0 0 0 0 0 0 0 0 0 127 0" result="hardAlpha"/>
<feOffset/>
<feGaussianBlur stdDeviation="2"/>
<feComposite in2="hardAlpha" operator="out"/>
<feColorMatrix type="matrix" values="0 0 0 0 0.498039 0 0 0 0 0.8 0 0 0 0 0.360784 0 0 0 1 0"/>
<feBlend mode="normal" in2="BackgroundImageFix" result="effect1_dropShadow_98_15"/>
<feColorMatrix in="SourceAlpha" type="matrix" values="0 0 0 0 0 0 0 0 0 0 0 0 0 0 0 0 0 0 127 0" result="hardAlpha"/>
<feOffset/>
<feGaussianBlur stdDeviation="6"/>
<feComposite in2="hardAlpha" operator="out"/>
<feColorMatrix type="matrix" values="0 0 0 0 0.498039 0 0 0 0 0.8 0 0 0 0 0.360784 0 0 0 0.7 0"/>
<feBlend mode="normal" in2="effect1_dropShadow_98_15" result="effect2_dropShadow_98_15"/>
<feColorMatrix in="SourceAlpha" type="matrix" values="0 0 0 0 0 0 0 0 0 0 0 0 0 0 0 0 0 0 127 0" result="hardAlpha"/>
<feOffset/>
<feGaussianBlur stdDeviation="15"/>
<feComposite in2="hardAlpha" operator="out"/>
<feColorMatrix type="matrix" values="0 0 0 0 0.498039 0 0 0 0 0.8 0 0 0 0 0.360784 0 0 0 0.4 0"/>
<feBlend mode="normal" in2="effect2_dropShadow_98_15" result="effect3_dropShadow_98_15"/>
<feBlend mode="normal" in="SourceGraphic" in2="effect3_dropShadow_98_15" result="shape"/>
</filter>
<filter id="filter11_ddd_98_15" x="1454.56" y="419.445" width="83.8999" height="84.5723" filterUnits="userSpaceOnUse" color-interpolation-filters="sRGB">
<feFlood flood-opacity="0" result="BackgroundImageFix"/>
<feColorMatrix in="SourceAlpha" type="matrix" values="0 0 0 0 0 0 0 0 0 0 0 0 0 0 0 0 0 0 127 0" result="hardAlpha"/>
<feOffset/>
<feGaussianBlur stdDeviation="2"/>
<feComposite in2="hardAlpha" operator="out"/>
<feColorMatrix type="matrix" values="0 0 0 0 0.498039 0 0 0 0 0.8 0 0 0 0 0.360784 0 0 0 1 0"/>
<feBlend mode="normal" in2="BackgroundImageFix" result="effect1_dropShadow_98_15"/>
<feColorMatrix in="SourceAlpha" type="matrix" values="0 0 0 0 0 0 0 0 0 0 0 0 0 0 0 0 0 0 127 0" result="hardAlpha"/>
<feOffset/>
<feGaussianBlur stdDeviation="6"/>
<feComposite in2="hardAlpha" operator="out"/>
<feColorMatrix type="matrix" values="0 0 0 0 0.498039 0 0 0 0 0.8 0 0 0 0 0.360784 0 0 0 0.7 0"/>
<feBlend mode="normal" in2="effect1_dropShadow_98_15" result="effect2_dropShadow_98_15"/>
<feColorMatrix in="SourceAlpha" type="matrix" values="0 0 0 0 0 0 0 0 0 0 0 0 0 0 0 0 0 0 127 0" result="hardAlpha"/>
<feOffset/>
<feGaussianBlur stdDeviation="15"/>
<feComposite in2="hardAlpha" operator="out"/>
<feColorMatrix type="matrix" values="0 0 0 0 0.498039 0 0 0 0 0.8 0 0 0 0 0.360784 0 0 0 0.4 0"/>
<feBlend mode="normal" in2="effect2_dropShadow_98_15" result="effect3_dropShadow_98_15"/>
<feBlend mode="normal" in="SourceGraphic" in2="effect3_dropShadow_98_15" result="shape"/>
</filter>
<filter id="filter12_ddd_98_15" x="1184.57" y="802.773" width="88.6797" height="89.4868" filterUnits="userSpaceOnUse" color-interpolation-filters="sRGB">
<feFlood flood-opacity="0" result="BackgroundImageFix"/>
<feColorMatrix in="SourceAlpha" type="matrix" values="0 0 0 0 0 0 0 0 0 0 0 0 0 0 0 0 0 0 127 0" result="hardAlpha"/>
<feOffset/>
<feGaussianBlur stdDeviation="2"/>
<feComposite in2="hardAlpha" operator="out"/>
<feColorMatrix type="matrix" values="0 0 0 0 0.498039 0 0 0 0 0.8 0 0 0 0 0.360784 0 0 0 1 0"/>
<feBlend mode="normal" in2="BackgroundImageFix" result="effect1_dropShadow_98_15"/>
<feColorMatrix in="SourceAlpha" type="matrix" values="0 0 0 0 0 0 0 0 0 0 0 0 0 0 0 0 0 0 127 0" result="hardAlpha"/>
<feOffset/>
<feGaussianBlur stdDeviation="6"/>
<feComposite in2="hardAlpha" operator="out"/>
<feColorMatrix type="matrix" values="0 0 0 0 0.498039 0 0 0 0 0.8 0 0 0 0 0.360784 0 0 0 0.7 0"/>
<feBlend mode="normal" in2="effect1_dropShadow_98_15" result="effect2_dropShadow_98_15"/>
<feColorMatrix in="SourceAlpha" type="matrix" values="0 0 0 0 0 0 0 0 0 0 0 0 0 0 0 0 0 0 127 0" result="hardAlpha"/>
<feOffset/>
<feGaussianBlur stdDeviation="15"/>
<feComposite in2="hardAlpha" operator="out"/>
<feColorMatrix type="matrix" values="0 0 0 0 0.498039 0 0 0 0 0.8 0 0 0 0 0.360784 0 0 0 0.4 0"/>
<feBlend mode="normal" in2="effect2_dropShadow_98_15" result="effect3_dropShadow_98_15"/>
<feBlend mode="normal" in="SourceGraphic" in2="effect3_dropShadow_98_15" result="shape"/>
</filter>
<filter id="filter13_ddd_98_15" x="744.949" y="1038.66" width="88.6709" height="89.4819" filterUnits="userSpaceOnUse" color-interpolation-filters="sRGB">
<feFlood flood-opacity="0" result="BackgroundImageFix"/>
<feColorMatrix in="SourceAlpha" type="matrix" values="0 0 0 0 0 0 0 0 0 0 0 0 0 0 0 0 0 0 127 0" result="hardAlpha"/>
<feOffset/>
<feGaussianBlur stdDeviation="2"/>
<feComposite in2="hardAlpha" operator="out"/>
<feColorMatrix type="matrix" values="0 0 0 0 0.498039 0 0 0 0 0.8 0 0 0 0 0.360784 0 0 0 1 0"/>
<feBlend mode="normal" in2="BackgroundImageFix" result="effect1_dropShadow_98_15"/>
<feColorMatrix in="SourceAlpha" type="matrix" values="0 0 0 0 0 0 0 0 0 0 0 0 0 0 0 0 0 0 127 0" result="hardAlpha"/>
<feOffset/>
<feGaussianBlur stdDeviation="6"/>
<feComposite in2="hardAlpha" operator="out"/>
<feColorMatrix type="matrix" values="0 0 0 0 0.498039 0 0 0 0 0.8 0 0 0 0 0.360784 0 0 0 0.7 0"/>
<feBlend mode="normal" in2="effect1_dropShadow_98_15" result="effect2_dropShadow_98_15"/>
<feColorMatrix in="SourceAlpha" type="matrix" values="0 0 0 0 0 0 0 0 0 0 0 0 0 0 0 0 0 0 127 0" result="hardAlpha"/>
<feOffset/>
<feGaussianBlur stdDeviation="15"/>
<feComposite in2="hardAlpha" operator="out"/>
<feColorMatrix type="matrix" values="0 0 0 0 0.498039 0 0 0 0 0.8 0 0 0 0 0.360784 0 0 0 0.4 0"/>
<feBlend mode="normal" in2="effect2_dropShadow_98_15" result="effect3_dropShadow_98_15"/>
<feBlend mode="normal" in="SourceGraphic" in2="effect3_dropShadow_98_15" result="shape"/>
</filter>
<filter id="filter14_ddd_98_15" x="1662.44" y="158.977" width="74.3301" height="74.744" filterUnits="userSpaceOnUse" color-interpolation-filters="sRGB">
<feFlood flood-opacity="0" result="BackgroundImageFix"/>
<feColorMatrix in="SourceAlpha" type="matrix" values="0 0 0 0 0 0 0 0 0 0 0 0 0 0 0 0 0 0 127 0" result="hardAlpha"/>
<feOffset/>
<feGaussianBlur stdDeviation="2"/>
<feComposite in2="hardAlpha" operator="out"/>
<feColorMatrix type="matrix" values="0 0 0 0 0.498039 0 0 0 0 0.8 0 0 0 0 0.360784 0 0 0 1 0"/>
<feBlend mode="normal" in2="BackgroundImageFix" result="effect1_dropShadow_98_15"/>
<feColorMatrix in="SourceAlpha" type="matrix" values="0 0 0 0 0 0 0 0 0 0 0 0 0 0 0 0 0 0 127 0" result="hardAlpha"/>
<feOffset/>
<feGaussianBlur stdDeviation="6"/>
<feComposite in2="hardAlpha" operator="out"/>
<feColorMatrix type="matrix" values="0 0 0 0 0.498039 0 0 0 0 0.8 0 0 0 0 0.360784 0 0 0 0.7 0"/>
<feBlend mode="normal" in2="effect1_dropShadow_98_15" result="effect2_dropShadow_98_15"/>
<feColorMatrix in="SourceAlpha" type="matrix" values="0 0 0 0 0 0 0 0 0 0 0 0 0 0 0 0 0 0 127 0" result="hardAlpha"/>
<feOffset/>
<feGaussianBlur stdDeviation="15"/>
<feComposite in2="hardAlpha" operator="out"/>
<feColorMatrix type="matrix" values="0 0 0 0 0.498039 0 0 0 0 0.8 0 0 0 0 0.360784 0 0 0 0.4 0"/>
<feBlend mode="normal" in2="effect2_dropShadow_98_15" result="effect3_dropShadow_98_15"/>
<feBlend mode="normal" in="SourceGraphic" in2="effect3_dropShadow_98_15" result="shape"/>
</filter>
<clipPath id="clip0_98_15">
<rect width="2029" height="1080" fill="white" transform="translate(1 1)"/>
</clipPath>
</defs>
</svg>
