<svg width="2029" height="1080" viewBox="0 0 2029 1080" fill="none" xmlns="http://www.w3.org/2000/svg">
<g clip-path="url(#clip0_48_160)">
<path d="M1862 284L1789 662" stroke="#454953" stroke-opacity="0.8"/>
<path d="M1868.4 278.378L2028.48 330.721" stroke="#454953" stroke-opacity="0.8"/>
<path d="M2028.73 370.728L1787.41 656.946" stroke="#454953" stroke-opacity="0.8"/>
<path d="M1793 660L2029 785" stroke="#454953" stroke-opacity="0.8"/>
<path d="M1501 465L1786 656" stroke="#454953" stroke-opacity="0.8"/>
<path d="M1496.04 465.631L1507.99 969.365" stroke="#454953" stroke-opacity="0.8"/>
<path d="M1235.29 848.474L1507.67 968.879" stroke="#454953" stroke-opacity="0.8"/>
<path d="M1228.38 848.725L1343.07 1079.71" stroke="#454953" stroke-opacity="0.8"/>
<path d="M889.02 482.47L1221.13 841.227" stroke="#454953" stroke-opacity="0.8"/>
<path d="M783.043 1080.22L599.069 746.035" stroke="#454953" stroke-opacity="0.8"/>
<path d="M141.028 999.926L599.272 745.297" stroke="#454953" stroke-opacity="0.8"/>
<path d="M599.104 1119.82L52.0439 650.353" stroke="#454953" stroke-opacity="0.8"/>
<path d="M-0.688965 826.708L47.0968 654.702" stroke="#454953" stroke-opacity="0.8"/>
<path d="M-0.494629 691.274L47.2909 654.416" stroke="#454953" stroke-opacity="0.8"/>
<path d="M-2.0752 524.405L45.7103 639.895" stroke="#454953" stroke-opacity="0.8"/>
<path d="M288.633 -38.1273L633.298 214.57" stroke="#454953" stroke-opacity="0.8"/>
<path d="M772.006 -8.30521L633.428 212.846" stroke="#454953" stroke-opacity="0.8"/>
<path d="M883.469 483.221L637.375 215.383" stroke="#454953" stroke-opacity="0.8"/>
<path d="M-21 1096.81L183.345 772.517" stroke="#454953" stroke-opacity="0.8"/>
<path d="M188.163 765.083L384.084 516.903" stroke="#454953" stroke-opacity="0.8"/>
<path d="M56.9702 644.518L386.69 509.37" stroke="#454953" stroke-opacity="0.8"/>
<path d="M891.102 482.572L403.22 506.016" stroke="#454953" stroke-opacity="0.8"/>
<path d="M384.098 509.514L637.361 214.646" stroke="#454953" stroke-opacity="0.8"/>
<path d="M599.178 745.363L888.28 479.981" stroke="#454953" stroke-opacity="0.8"/>
<path d="M1356.64 1079.5L1509.55 973.836" stroke="#454953" stroke-opacity="0.8"/>
<path d="M1700.71 1087.8L1509.57 969.852" stroke="#454953" stroke-opacity="0.8"/>
<path d="M1856.07 272.017L1698.38 195.842" stroke="#454953" stroke-opacity="0.8"/>
<path d="M1867.72 272.537L1903.56 89.5803" stroke="#454953" stroke-opacity="0.8"/>
<path d="M2027.91 235.911L1910.83 87.5716" stroke="#454953" stroke-opacity="0.8"/>
<path d="M1900.13 71.0278L1854.95 -54.5037" stroke="#454953" stroke-opacity="0.8"/>
<path d="M1896.72 77.9082L1566.07 -54.1848" stroke="#454953" stroke-opacity="0.8"/>
<path d="M1589.15 -54.9177L1701.48 195.122" stroke="#454953" stroke-opacity="0.8"/>
<path d="M1304.43 150.578L1698.66 194.808" stroke="#454953" stroke-opacity="0.8"/>
<path d="M1301.7 140.827L1612.94 -55.1532" stroke="#454953" stroke-opacity="0.8"/>
<path d="M890.691 479.963L1289.7 150.693" stroke="#454953" stroke-opacity="0.8"/>
<path d="M895.789 479.845L1495.5 465.16" stroke="#454953" stroke-opacity="0.8"/>
<path d="M1290.48 150.81L1495.95 460.422" stroke="#454953" stroke-opacity="0.8"/>
<path d="M1166.21 -11.4013L1283.28 138.491" stroke="#454953" stroke-opacity="0.8"/>
<path d="M1786.5 669.708L1701.51 1087.44" stroke="#454953" stroke-opacity="0.8"/>
<path d="M1792.17 657.682L1510.24 969.752" stroke="#454953" stroke-opacity="0.8"/>
<path d="M2028.68 785.493L1701.35 1087.73" stroke="#454953" stroke-opacity="0.8"/>
<path d="M1865.49 289.848C1872.09 289.848 1877.44 284.348 1877.44 277.562C1877.44 270.776 1872.09 265.276 1865.49 265.276C1858.9 265.276 1853.55 270.776 1853.55 277.562C1853.55 284.348 1858.9 289.848 1865.49 289.848Z" fill="#454953"/>
<path d="M1865.49 265.776C1871.8 265.776 1876.94 271.039 1876.94 277.562C1876.94 284.085 1871.8 289.348 1865.49 289.348C1859.19 289.348 1854.05 284.085 1854.05 277.562C1854.05 271.039 1859.19 265.776 1865.49 265.776Z" stroke="#454953" stroke-opacity="0.8"/>
<path d="M1293.62 163.405C1302.2 163.405 1309.15 156.254 1309.15 147.433C1309.15 138.612 1302.2 131.461 1293.62 131.461C1285.05 131.461 1278.09 138.612 1278.09 147.433C1278.09 156.254 1285.05 163.405 1293.62 163.405Z" fill="#454953"/>
<path d="M887.439 497.589C894.696 497.589 900.58 491.539 900.58 484.074C900.58 476.611 894.696 470.56 887.439 470.56C880.181 470.56 874.298 476.611 874.298 484.074C874.298 491.539 880.181 497.589 887.439 497.589Z" fill="#454953"/>
<path d="M599.532 758.057C607.449 758.057 613.867 751.456 613.867 743.314C613.867 735.171 607.449 728.57 599.532 728.57C591.614 728.57 585.196 735.171 585.196 743.314C585.196 751.456 591.614 758.057 599.532 758.057Z" fill="#454953"/>
<path d="M183.797 782.629C190.395 782.629 195.744 777.129 195.744 770.343C195.744 763.557 190.395 758.057 183.797 758.057C177.2 758.057 171.851 763.557 171.851 770.343C171.851 777.129 177.2 782.629 183.797 782.629Z" fill="#454953"/>
<path d="M388.08 524.619C396.657 524.619 403.61 517.468 403.61 508.647C403.61 499.826 396.657 492.675 388.08 492.675C379.503 492.675 372.55 499.826 372.55 508.647C372.55 517.468 379.503 524.619 388.08 524.619Z" fill="#454953"/>
<path d="M636.565 227.292C643.822 227.292 649.706 221.241 649.706 213.778C649.706 206.314 643.822 200.263 636.565 200.263C629.307 200.263 623.424 206.314 623.424 213.778C623.424 221.241 629.307 227.292 636.565 227.292Z" fill="#454953"/>
<path d="M1787 669.596C1793.6 669.596 1798.95 664.096 1798.95 657.31C1798.95 650.525 1793.6 645.024 1787 645.024C1780.41 645.024 1775.06 650.525 1775.06 657.31C1775.06 664.096 1780.41 669.596 1787 669.596Z" fill="#454953"/>
<path d="M1787 645.524C1793.31 645.524 1798.45 650.788 1798.45 657.31C1798.45 663.832 1793.31 669.096 1787 669.096C1780.7 669.096 1775.56 663.833 1775.56 657.31C1775.56 650.788 1780.7 645.524 1787 645.524Z" stroke="#454953" stroke-opacity="0.8"/>
<path d="M1509.85 981.665C1516.45 981.665 1521.8 976.164 1521.8 969.379C1521.8 962.593 1516.45 957.092 1509.85 957.092C1503.26 957.092 1497.91 962.593 1497.91 969.379C1497.91 976.164 1503.26 981.665 1509.85 981.665Z" fill="#454953"/>
<path d="M1509.85 957.592C1516.16 957.593 1521.3 962.856 1521.3 969.379C1521.3 975.901 1516.16 981.165 1509.85 981.165C1503.55 981.165 1498.41 975.902 1498.41 969.379C1498.41 962.855 1503.55 957.592 1509.85 957.592Z" stroke="#454953" stroke-opacity="0.8"/>
<path d="M1346.18 1094.69C1356.08 1094.69 1364.1 1086.45 1364.1 1076.27C1364.1 1066.09 1356.08 1057.84 1346.18 1057.84C1336.28 1057.84 1328.26 1066.09 1328.26 1076.27C1328.26 1086.45 1336.28 1094.69 1346.18 1094.69Z" fill="#454953"/>
<path d="M1346.18 1058.34C1355.79 1058.34 1363.6 1066.35 1363.6 1076.27C1363.6 1086.18 1355.79 1094.19 1346.18 1094.19C1336.57 1094.19 1328.76 1086.18 1328.76 1076.27C1328.76 1066.35 1336.57 1058.34 1346.18 1058.34Z" stroke="#454953" stroke-opacity="0.8"/>
<path d="M1699.8 1104.54C1709.7 1104.54 1717.72 1096.28 1717.72 1086.11C1717.72 1075.93 1709.7 1067.67 1699.8 1067.67C1689.9 1067.67 1681.88 1075.93 1681.88 1086.11C1681.88 1096.28 1689.9 1104.54 1699.8 1104.54Z" fill="#454953"/>
<g filter="url(#filter0_ddd_48_160)">
<path d="M795.206 1079.47L1225.28 848.487Z" fill="#F8F8F8"/>
<path d="M795.206 1079.47L1225.28 848.487" stroke="#F8F8F8"/>
</g>
<g filter="url(#filter1_ddd_48_160)">
<path d="M286.705 -37.513L52.8921 632.915Z" fill="#F8F8F8"/>
<path d="M286.705 -37.513L52.8921 632.915" stroke="#F8F8F8"/>
</g>
<g filter="url(#filter2_ddd_48_160)">
<path d="M1502.27 450.561L1695.8 199.922Z" fill="#F8F8F8"/>
<path d="M1502.27 450.561L1695.8 199.922" stroke="#F8F8F8"/>
</g>
<g filter="url(#filter3_ddd_48_160)">
<path d="M1904.05 83.2702L1701.24 195.826Z" fill="#F8F8F8"/>
<path d="M1904.05 83.2702L1701.24 195.826" stroke="#F8F8F8"/>
</g>
<g filter="url(#filter4_ddd_48_160)">
<path d="M1227.48 848.658L1495.07 460.415Z" fill="#F8F8F8"/>
<path d="M1227.48 848.658L1495.07 460.415" stroke="#F8F8F8"/>
</g>
<g filter="url(#filter5_ddd_48_160)">
<path d="M1910.76 73.0676L1969.14 -54.9206" stroke="#F8F8F8" stroke-opacity="0.8" shape-rendering="crispEdges"/>
</g>
<g filter="url(#filter6_ddd_48_160)">
<path d="M171.446 1119.54L51.8706 654.986Z" fill="#F8F8F8"/>
<path d="M171.446 1119.54L51.8706 654.986" stroke="#F8F8F8"/>
</g>
<g filter="url(#filter7_ddd_48_160)">
<path d="M140.759 1006.78C145.725 1006.78 149.75 1002.73 149.75 997.741C149.75 992.755 145.725 988.711 140.759 988.711C135.794 988.711 131.769 992.755 131.769 997.741C131.769 1002.73 135.794 1006.78 140.759 1006.78Z" fill="#F8F8F8"/>
</g>
<g filter="url(#filter8_ddd_48_160)">
<path d="M48.8037 662.223C57.3808 662.223 64.334 655.073 64.334 646.252C64.334 637.431 57.3808 630.28 48.8037 630.28C40.2266 630.28 33.2734 637.431 33.2734 646.252C33.2734 655.073 40.2266 662.223 48.8037 662.223Z" fill="#F8F8F8"/>
<path d="M48.8037 630.78C57.0916 630.78 63.834 637.694 63.834 646.252C63.8339 654.81 57.0915 661.723 48.8037 661.723C40.5159 661.723 33.7736 654.81 33.7734 646.252C33.7734 637.694 40.5158 630.78 48.8037 630.78Z" stroke="#F8F8F8"/>
</g>
<g filter="url(#filter9_ddd_48_160)">
<path d="M1904.08 94.6027C1910.68 94.6027 1916.02 89.1019 1916.02 82.3165C1916.02 75.531 1910.68 70.0303 1904.08 70.0303C1897.48 70.0303 1892.13 75.531 1892.13 82.3165C1892.13 89.1019 1897.48 94.6027 1904.08 94.6027Z" fill="#F8F8F8"/>
</g>
<g filter="url(#filter10_ddd_48_160)">
<path d="M1495.51 473.017C1502.11 473.017 1507.46 467.517 1507.46 460.731C1507.46 453.946 1502.11 448.445 1495.51 448.445C1488.91 448.445 1483.56 453.946 1483.56 460.731C1483.56 467.517 1488.91 473.017 1495.51 473.017Z" fill="#F8F8F8"/>
<path d="M1495.51 448.945C1501.82 448.945 1506.96 454.209 1506.96 460.731C1506.96 467.254 1501.82 472.517 1495.51 472.517C1489.2 472.517 1484.06 467.254 1484.06 460.731C1484.06 454.209 1489.2 448.945 1495.51 448.945Z" stroke="#F8F8F8"/>
</g>
<g filter="url(#filter11_ddd_48_160)">
<path d="M1227.91 861.26C1235.83 861.26 1242.25 854.66 1242.25 846.517C1242.25 838.375 1235.83 831.773 1227.91 831.773C1219.99 831.773 1213.57 838.375 1213.57 846.517C1213.57 854.66 1219.99 861.26 1227.91 861.26Z" fill="#F8F8F8"/>
<path d="M1227.91 832.273C1235.54 832.273 1241.75 838.638 1241.75 846.517C1241.75 854.397 1235.54 860.761 1227.91 860.761C1220.28 860.761 1214.07 854.397 1214.07 846.517C1214.07 838.638 1220.28 832.273 1227.91 832.273Z" stroke="#F8F8F8"/>
</g>
<g filter="url(#filter12_ddd_48_160)">
<path d="M788.284 1097.15C796.202 1097.15 802.62 1090.55 802.62 1082.41C802.62 1074.26 796.202 1067.66 788.284 1067.66C780.367 1067.66 773.949 1074.26 773.949 1082.41C773.949 1090.55 780.367 1097.15 788.284 1097.15Z" fill="#F8F8F8"/>
<path d="M788.284 1068.16C795.913 1068.16 802.12 1074.53 802.12 1082.41C802.12 1090.29 795.913 1096.65 788.284 1096.65C780.656 1096.65 774.449 1090.29 774.449 1082.41C774.449 1074.53 780.656 1068.16 788.284 1068.16Z" stroke="#F8F8F8"/>
</g>
<g filter="url(#filter13_ddd_48_160)">
<path d="M1698.6 202.721C1702.56 202.721 1705.77 199.42 1705.77 195.349C1705.77 191.277 1702.56 187.977 1698.6 187.977C1694.65 187.977 1691.44 191.277 1691.44 195.349C1691.44 199.42 1694.65 202.721 1698.6 202.721Z" fill="#F8F8F8"/>
<path d="M1698.6 188.477C1702.27 188.477 1705.27 191.54 1705.27 195.348C1705.27 199.157 1702.27 202.221 1698.6 202.221C1694.94 202.221 1691.94 199.157 1691.94 195.348C1691.94 191.54 1694.94 188.477 1698.6 188.477Z" stroke="#F8F8F8"/>
</g>
</g>
<defs>
<filter id="filter0_ddd_48_160" x="764.969" y="818.046" width="490.544" height="291.862" filterUnits="userSpaceOnUse" color-interpolation-filters="sRGB">
<feFlood flood-opacity="0" result="BackgroundImageFix"/>
<feColorMatrix in="SourceAlpha" type="matrix" values="0 0 0 0 0 0 0 0 0 0 0 0 0 0 0 0 0 0 127 0" result="hardAlpha"/>
<feOffset/>
<feGaussianBlur stdDeviation="2"/>
<feComposite in2="hardAlpha" operator="out"/>
<feColorMatrix type="matrix" values="0 0 0 0 0.498039 0 0 0 0 0.8 0 0 0 0 0.360784 0 0 0 1 0"/>
<feBlend mode="normal" in2="BackgroundImageFix" result="effect1_dropShadow_48_160"/>
<feColorMatrix in="SourceAlpha" type="matrix" values="0 0 0 0 0 0 0 0 0 0 0 0 0 0 0 0 0 0 127 0" result="hardAlpha"/>
<feOffset/>
<feGaussianBlur stdDeviation="6"/>
<feComposite in2="hardAlpha" operator="out"/>
<feColorMatrix type="matrix" values="0 0 0 0 0.498039 0 0 0 0 0.8 0 0 0 0 0.360784 0 0 0 0.7 0"/>
<feBlend mode="normal" in2="effect1_dropShadow_48_160" result="effect2_dropShadow_48_160"/>
<feColorMatrix in="SourceAlpha" type="matrix" values="0 0 0 0 0 0 0 0 0 0 0 0 0 0 0 0 0 0 127 0" result="hardAlpha"/>
<feOffset/>
<feGaussianBlur stdDeviation="15"/>
<feComposite in2="hardAlpha" operator="out"/>
<feColorMatrix type="matrix" values="0 0 0 0 0.498039 0 0 0 0 0.8 0 0 0 0 0.360784 0 0 0 0.4 0"/>
<feBlend mode="normal" in2="effect2_dropShadow_48_160" result="effect3_dropShadow_48_160"/>
<feBlend mode="normal" in="SourceGraphic" in2="effect3_dropShadow_48_160" result="shape"/>
</filter>
<filter id="filter1_ddd_48_160" x="22.4199" y="-67.6776" width="294.757" height="730.757" filterUnits="userSpaceOnUse" color-interpolation-filters="sRGB">
<feFlood flood-opacity="0" result="BackgroundImageFix"/>
<feColorMatrix in="SourceAlpha" type="matrix" values="0 0 0 0 0 0 0 0 0 0 0 0 0 0 0 0 0 0 127 0" result="hardAlpha"/>
<feOffset/>
<feGaussianBlur stdDeviation="2"/>
<feComposite in2="hardAlpha" operator="out"/>
<feColorMatrix type="matrix" values="0 0 0 0 0.498039 0 0 0 0 0.8 0 0 0 0 0.360784 0 0 0 1 0"/>
<feBlend mode="normal" in2="BackgroundImageFix" result="effect1_dropShadow_48_160"/>
<feColorMatrix in="SourceAlpha" type="matrix" values="0 0 0 0 0 0 0 0 0 0 0 0 0 0 0 0 0 0 127 0" result="hardAlpha"/>
<feOffset/>
<feGaussianBlur stdDeviation="6"/>
<feComposite in2="hardAlpha" operator="out"/>
<feColorMatrix type="matrix" values="0 0 0 0 0.498039 0 0 0 0 0.8 0 0 0 0 0.360784 0 0 0 0.7 0"/>
<feBlend mode="normal" in2="effect1_dropShadow_48_160" result="effect2_dropShadow_48_160"/>
<feColorMatrix in="SourceAlpha" type="matrix" values="0 0 0 0 0 0 0 0 0 0 0 0 0 0 0 0 0 0 127 0" result="hardAlpha"/>
<feOffset/>
<feGaussianBlur stdDeviation="15"/>
<feComposite in2="hardAlpha" operator="out"/>
<feColorMatrix type="matrix" values="0 0 0 0 0.498039 0 0 0 0 0.8 0 0 0 0 0.360784 0 0 0 0.4 0"/>
<feBlend mode="normal" in2="effect2_dropShadow_48_160" result="effect3_dropShadow_48_160"/>
<feBlend mode="normal" in="SourceGraphic" in2="effect3_dropShadow_48_160" result="shape"/>
</filter>
<filter id="filter2_ddd_48_160" x="1471.87" y="169.617" width="254.322" height="311.25" filterUnits="userSpaceOnUse" color-interpolation-filters="sRGB">
<feFlood flood-opacity="0" result="BackgroundImageFix"/>
<feColorMatrix in="SourceAlpha" type="matrix" values="0 0 0 0 0 0 0 0 0 0 0 0 0 0 0 0 0 0 127 0" result="hardAlpha"/>
<feOffset/>
<feGaussianBlur stdDeviation="2"/>
<feComposite in2="hardAlpha" operator="out"/>
<feColorMatrix type="matrix" values="0 0 0 0 0.498039 0 0 0 0 0.8 0 0 0 0 0.360784 0 0 0 1 0"/>
<feBlend mode="normal" in2="BackgroundImageFix" result="effect1_dropShadow_48_160"/>
<feColorMatrix in="SourceAlpha" type="matrix" values="0 0 0 0 0 0 0 0 0 0 0 0 0 0 0 0 0 0 127 0" result="hardAlpha"/>
<feOffset/>
<feGaussianBlur stdDeviation="6"/>
<feComposite in2="hardAlpha" operator="out"/>
<feColorMatrix type="matrix" values="0 0 0 0 0.498039 0 0 0 0 0.8 0 0 0 0 0.360784 0 0 0 0.7 0"/>
<feBlend mode="normal" in2="effect1_dropShadow_48_160" result="effect2_dropShadow_48_160"/>
<feColorMatrix in="SourceAlpha" type="matrix" values="0 0 0 0 0 0 0 0 0 0 0 0 0 0 0 0 0 0 127 0" result="hardAlpha"/>
<feOffset/>
<feGaussianBlur stdDeviation="15"/>
<feComposite in2="hardAlpha" operator="out"/>
<feColorMatrix type="matrix" values="0 0 0 0 0.498039 0 0 0 0 0.8 0 0 0 0 0.360784 0 0 0 0.4 0"/>
<feBlend mode="normal" in2="effect2_dropShadow_48_160" result="effect3_dropShadow_48_160"/>
<feBlend mode="normal" in="SourceGraphic" in2="effect3_dropShadow_48_160" result="shape"/>
</filter>
<filter id="filter3_ddd_48_160" x="1670.99" y="52.833" width="263.295" height="173.43" filterUnits="userSpaceOnUse" color-interpolation-filters="sRGB">
<feFlood flood-opacity="0" result="BackgroundImageFix"/>
<feColorMatrix in="SourceAlpha" type="matrix" values="0 0 0 0 0 0 0 0 0 0 0 0 0 0 0 0 0 0 127 0" result="hardAlpha"/>
<feOffset/>
<feGaussianBlur stdDeviation="2"/>
<feComposite in2="hardAlpha" operator="out"/>
<feColorMatrix type="matrix" values="0 0 0 0 0.498039 0 0 0 0 0.8 0 0 0 0 0.360784 0 0 0 1 0"/>
<feBlend mode="normal" in2="BackgroundImageFix" result="effect1_dropShadow_48_160"/>
<feColorMatrix in="SourceAlpha" type="matrix" values="0 0 0 0 0 0 0 0 0 0 0 0 0 0 0 0 0 0 127 0" result="hardAlpha"/>
<feOffset/>
<feGaussianBlur stdDeviation="6"/>
<feComposite in2="hardAlpha" operator="out"/>
<feColorMatrix type="matrix" values="0 0 0 0 0.498039 0 0 0 0 0.8 0 0 0 0 0.360784 0 0 0 0.7 0"/>
<feBlend mode="normal" in2="effect1_dropShadow_48_160" result="effect2_dropShadow_48_160"/>
<feColorMatrix in="SourceAlpha" type="matrix" values="0 0 0 0 0 0 0 0 0 0 0 0 0 0 0 0 0 0 127 0" result="hardAlpha"/>
<feOffset/>
<feGaussianBlur stdDeviation="15"/>
<feComposite in2="hardAlpha" operator="out"/>
<feColorMatrix type="matrix" values="0 0 0 0 0.498039 0 0 0 0 0.8 0 0 0 0 0.360784 0 0 0 0.4 0"/>
<feBlend mode="normal" in2="effect2_dropShadow_48_160" result="effect3_dropShadow_48_160"/>
<feBlend mode="normal" in="SourceGraphic" in2="effect3_dropShadow_48_160" result="shape"/>
</filter>
<filter id="filter4_ddd_48_160" x="1197.07" y="430.131" width="328.413" height="448.811" filterUnits="userSpaceOnUse" color-interpolation-filters="sRGB">
<feFlood flood-opacity="0" result="BackgroundImageFix"/>
<feColorMatrix in="SourceAlpha" type="matrix" values="0 0 0 0 0 0 0 0 0 0 0 0 0 0 0 0 0 0 127 0" result="hardAlpha"/>
<feOffset/>
<feGaussianBlur stdDeviation="2"/>
<feComposite in2="hardAlpha" operator="out"/>
<feColorMatrix type="matrix" values="0 0 0 0 0.498039 0 0 0 0 0.8 0 0 0 0 0.360784 0 0 0 1 0"/>
<feBlend mode="normal" in2="BackgroundImageFix" result="effect1_dropShadow_48_160"/>
<feColorMatrix in="SourceAlpha" type="matrix" values="0 0 0 0 0 0 0 0 0 0 0 0 0 0 0 0 0 0 127 0" result="hardAlpha"/>
<feOffset/>
<feGaussianBlur stdDeviation="6"/>
<feComposite in2="hardAlpha" operator="out"/>
<feColorMatrix type="matrix" values="0 0 0 0 0.498039 0 0 0 0 0.8 0 0 0 0 0.360784 0 0 0 0.7 0"/>
<feBlend mode="normal" in2="effect1_dropShadow_48_160" result="effect2_dropShadow_48_160"/>
<feColorMatrix in="SourceAlpha" type="matrix" values="0 0 0 0 0 0 0 0 0 0 0 0 0 0 0 0 0 0 127 0" result="hardAlpha"/>
<feOffset/>
<feGaussianBlur stdDeviation="15"/>
<feComposite in2="hardAlpha" operator="out"/>
<feColorMatrix type="matrix" values="0 0 0 0 0.498039 0 0 0 0 0.8 0 0 0 0 0.360784 0 0 0 0.4 0"/>
<feBlend mode="normal" in2="effect2_dropShadow_48_160" result="effect3_dropShadow_48_160"/>
<feBlend mode="normal" in="SourceGraphic" in2="effect3_dropShadow_48_160" result="shape"/>
</filter>
<filter id="filter5_ddd_48_160" x="1880.3" y="-85.1281" width="119.29" height="188.403" filterUnits="userSpaceOnUse" color-interpolation-filters="sRGB">
<feFlood flood-opacity="0" result="BackgroundImageFix"/>
<feColorMatrix in="SourceAlpha" type="matrix" values="0 0 0 0 0 0 0 0 0 0 0 0 0 0 0 0 0 0 127 0" result="hardAlpha"/>
<feOffset/>
<feGaussianBlur stdDeviation="2"/>
<feComposite in2="hardAlpha" operator="out"/>
<feColorMatrix type="matrix" values="0 0 0 0 0.498039 0 0 0 0 0.8 0 0 0 0 0.360784 0 0 0 1 0"/>
<feBlend mode="normal" in2="BackgroundImageFix" result="effect1_dropShadow_48_160"/>
<feColorMatrix in="SourceAlpha" type="matrix" values="0 0 0 0 0 0 0 0 0 0 0 0 0 0 0 0 0 0 127 0" result="hardAlpha"/>
<feOffset/>
<feGaussianBlur stdDeviation="6"/>
<feComposite in2="hardAlpha" operator="out"/>
<feColorMatrix type="matrix" values="0 0 0 0 0.498039 0 0 0 0 0.8 0 0 0 0 0.360784 0 0 0 0.7 0"/>
<feBlend mode="normal" in2="effect1_dropShadow_48_160" result="effect2_dropShadow_48_160"/>
<feColorMatrix in="SourceAlpha" type="matrix" values="0 0 0 0 0 0 0 0 0 0 0 0 0 0 0 0 0 0 127 0" result="hardAlpha"/>
<feOffset/>
<feGaussianBlur stdDeviation="15"/>
<feComposite in2="hardAlpha" operator="out"/>
<feColorMatrix type="matrix" values="0 0 0 0 0.498039 0 0 0 0 0.8 0 0 0 0 0.360784 0 0 0 0.4 0"/>
<feBlend mode="normal" in2="effect2_dropShadow_48_160" result="effect3_dropShadow_48_160"/>
<feBlend mode="normal" in="SourceGraphic" in2="effect3_dropShadow_48_160" result="shape"/>
</filter>
<filter id="filter6_ddd_48_160" x="21.3862" y="624.862" width="180.544" height="524.802" filterUnits="userSpaceOnUse" color-interpolation-filters="sRGB">
<feFlood flood-opacity="0" result="BackgroundImageFix"/>
<feColorMatrix in="SourceAlpha" type="matrix" values="0 0 0 0 0 0 0 0 0 0 0 0 0 0 0 0 0 0 127 0" result="hardAlpha"/>
<feOffset/>
<feGaussianBlur stdDeviation="2"/>
<feComposite in2="hardAlpha" operator="out"/>
<feColorMatrix type="matrix" values="0 0 0 0 0.498039 0 0 0 0 0.8 0 0 0 0 0.360784 0 0 0 1 0"/>
<feBlend mode="normal" in2="BackgroundImageFix" result="effect1_dropShadow_48_160"/>
<feColorMatrix in="SourceAlpha" type="matrix" values="0 0 0 0 0 0 0 0 0 0 0 0 0 0 0 0 0 0 127 0" result="hardAlpha"/>
<feOffset/>
<feGaussianBlur stdDeviation="6"/>
<feComposite in2="hardAlpha" operator="out"/>
<feColorMatrix type="matrix" values="0 0 0 0 0.498039 0 0 0 0 0.8 0 0 0 0 0.360784 0 0 0 0.7 0"/>
<feBlend mode="normal" in2="effect1_dropShadow_48_160" result="effect2_dropShadow_48_160"/>
<feColorMatrix in="SourceAlpha" type="matrix" values="0 0 0 0 0 0 0 0 0 0 0 0 0 0 0 0 0 0 127 0" result="hardAlpha"/>
<feOffset/>
<feGaussianBlur stdDeviation="15"/>
<feComposite in2="hardAlpha" operator="out"/>
<feColorMatrix type="matrix" values="0 0 0 0 0.498039 0 0 0 0 0.8 0 0 0 0 0.360784 0 0 0 0.4 0"/>
<feBlend mode="normal" in2="effect2_dropShadow_48_160" result="effect3_dropShadow_48_160"/>
<feBlend mode="normal" in="SourceGraphic" in2="effect3_dropShadow_48_160" result="shape"/>
</filter>
<filter id="filter7_ddd_48_160" x="101.769" y="958.711" width="77.9814" height="78.0641" filterUnits="userSpaceOnUse" color-interpolation-filters="sRGB">
<feFlood flood-opacity="0" result="BackgroundImageFix"/>
<feColorMatrix in="SourceAlpha" type="matrix" values="0 0 0 0 0 0 0 0 0 0 0 0 0 0 0 0 0 0 127 0" result="hardAlpha"/>
<feOffset/>
<feGaussianBlur stdDeviation="2"/>
<feComposite in2="hardAlpha" operator="out"/>
<feColorMatrix type="matrix" values="0 0 0 0 0.498039 0 0 0 0 0.8 0 0 0 0 0.360784 0 0 0 1 0"/>
<feBlend mode="normal" in2="BackgroundImageFix" result="effect1_dropShadow_48_160"/>
<feColorMatrix in="SourceAlpha" type="matrix" values="0 0 0 0 0 0 0 0 0 0 0 0 0 0 0 0 0 0 127 0" result="hardAlpha"/>
<feOffset/>
<feGaussianBlur stdDeviation="6"/>
<feComposite in2="hardAlpha" operator="out"/>
<feColorMatrix type="matrix" values="0 0 0 0 0.498039 0 0 0 0 0.8 0 0 0 0 0.360784 0 0 0 0.7 0"/>
<feBlend mode="normal" in2="effect1_dropShadow_48_160" result="effect2_dropShadow_48_160"/>
<feColorMatrix in="SourceAlpha" type="matrix" values="0 0 0 0 0 0 0 0 0 0 0 0 0 0 0 0 0 0 127 0" result="hardAlpha"/>
<feOffset/>
<feGaussianBlur stdDeviation="15"/>
<feComposite in2="hardAlpha" operator="out"/>
<feColorMatrix type="matrix" values="0 0 0 0 0.498039 0 0 0 0 0.8 0 0 0 0 0.360784 0 0 0 0.4 0"/>
<feBlend mode="normal" in2="effect2_dropShadow_48_160" result="effect3_dropShadow_48_160"/>
<feBlend mode="normal" in="SourceGraphic" in2="effect3_dropShadow_48_160" result="shape"/>
</filter>
<filter id="filter8_ddd_48_160" x="3.27344" y="600.28" width="91.0605" height="91.9437" filterUnits="userSpaceOnUse" color-interpolation-filters="sRGB">
<feFlood flood-opacity="0" result="BackgroundImageFix"/>
<feColorMatrix in="SourceAlpha" type="matrix" values="0 0 0 0 0 0 0 0 0 0 0 0 0 0 0 0 0 0 127 0" result="hardAlpha"/>
<feOffset/>
<feGaussianBlur stdDeviation="2"/>
<feComposite in2="hardAlpha" operator="out"/>
<feColorMatrix type="matrix" values="0 0 0 0 0.498039 0 0 0 0 0.8 0 0 0 0 0.360784 0 0 0 1 0"/>
<feBlend mode="normal" in2="BackgroundImageFix" result="effect1_dropShadow_48_160"/>
<feColorMatrix in="SourceAlpha" type="matrix" values="0 0 0 0 0 0 0 0 0 0 0 0 0 0 0 0 0 0 127 0" result="hardAlpha"/>
<feOffset/>
<feGaussianBlur stdDeviation="6"/>
<feComposite in2="hardAlpha" operator="out"/>
<feColorMatrix type="matrix" values="0 0 0 0 0.498039 0 0 0 0 0.8 0 0 0 0 0.360784 0 0 0 0.7 0"/>
<feBlend mode="normal" in2="effect1_dropShadow_48_160" result="effect2_dropShadow_48_160"/>
<feColorMatrix in="SourceAlpha" type="matrix" values="0 0 0 0 0 0 0 0 0 0 0 0 0 0 0 0 0 0 127 0" result="hardAlpha"/>
<feOffset/>
<feGaussianBlur stdDeviation="15"/>
<feComposite in2="hardAlpha" operator="out"/>
<feColorMatrix type="matrix" values="0 0 0 0 0.498039 0 0 0 0 0.8 0 0 0 0 0.360784 0 0 0 0.4 0"/>
<feBlend mode="normal" in2="effect2_dropShadow_48_160" result="effect3_dropShadow_48_160"/>
<feBlend mode="normal" in="SourceGraphic" in2="effect3_dropShadow_48_160" result="shape"/>
</filter>
<filter id="filter9_ddd_48_160" x="1862.13" y="40.0303" width="83.8901" height="84.5724" filterUnits="userSpaceOnUse" color-interpolation-filters="sRGB">
<feFlood flood-opacity="0" result="BackgroundImageFix"/>
<feColorMatrix in="SourceAlpha" type="matrix" values="0 0 0 0 0 0 0 0 0 0 0 0 0 0 0 0 0 0 127 0" result="hardAlpha"/>
<feOffset/>
<feGaussianBlur stdDeviation="2"/>
<feComposite in2="hardAlpha" operator="out"/>
<feColorMatrix type="matrix" values="0 0 0 0 0.498039 0 0 0 0 0.8 0 0 0 0 0.360784 0 0 0 1 0"/>
<feBlend mode="normal" in2="BackgroundImageFix" result="effect1_dropShadow_48_160"/>
<feColorMatrix in="SourceAlpha" type="matrix" values="0 0 0 0 0 0 0 0 0 0 0 0 0 0 0 0 0 0 127 0" result="hardAlpha"/>
<feOffset/>
<feGaussianBlur stdDeviation="6"/>
<feComposite in2="hardAlpha" operator="out"/>
<feColorMatrix type="matrix" values="0 0 0 0 0.498039 0 0 0 0 0.8 0 0 0 0 0.360784 0 0 0 0.7 0"/>
<feBlend mode="normal" in2="effect1_dropShadow_48_160" result="effect2_dropShadow_48_160"/>
<feColorMatrix in="SourceAlpha" type="matrix" values="0 0 0 0 0 0 0 0 0 0 0 0 0 0 0 0 0 0 127 0" result="hardAlpha"/>
<feOffset/>
<feGaussianBlur stdDeviation="15"/>
<feComposite in2="hardAlpha" operator="out"/>
<feColorMatrix type="matrix" values="0 0 0 0 0.498039 0 0 0 0 0.8 0 0 0 0 0.360784 0 0 0 0.4 0"/>
<feBlend mode="normal" in2="effect2_dropShadow_48_160" result="effect3_dropShadow_48_160"/>
<feBlend mode="normal" in="SourceGraphic" in2="effect3_dropShadow_48_160" result="shape"/>
</filter>
<filter id="filter10_ddd_48_160" x="1453.56" y="418.445" width="83.8999" height="84.5723" filterUnits="userSpaceOnUse" color-interpolation-filters="sRGB">
<feFlood flood-opacity="0" result="BackgroundImageFix"/>
<feColorMatrix in="SourceAlpha" type="matrix" values="0 0 0 0 0 0 0 0 0 0 0 0 0 0 0 0 0 0 127 0" result="hardAlpha"/>
<feOffset/>
<feGaussianBlur stdDeviation="2"/>
<feComposite in2="hardAlpha" operator="out"/>
<feColorMatrix type="matrix" values="0 0 0 0 0.498039 0 0 0 0 0.8 0 0 0 0 0.360784 0 0 0 1 0"/>
<feBlend mode="normal" in2="BackgroundImageFix" result="effect1_dropShadow_48_160"/>
<feColorMatrix in="SourceAlpha" type="matrix" values="0 0 0 0 0 0 0 0 0 0 0 0 0 0 0 0 0 0 127 0" result="hardAlpha"/>
<feOffset/>
<feGaussianBlur stdDeviation="6"/>
<feComposite in2="hardAlpha" operator="out"/>
<feColorMatrix type="matrix" values="0 0 0 0 0.498039 0 0 0 0 0.8 0 0 0 0 0.360784 0 0 0 0.7 0"/>
<feBlend mode="normal" in2="effect1_dropShadow_48_160" result="effect2_dropShadow_48_160"/>
<feColorMatrix in="SourceAlpha" type="matrix" values="0 0 0 0 0 0 0 0 0 0 0 0 0 0 0 0 0 0 127 0" result="hardAlpha"/>
<feOffset/>
<feGaussianBlur stdDeviation="15"/>
<feComposite in2="hardAlpha" operator="out"/>
<feColorMatrix type="matrix" values="0 0 0 0 0.498039 0 0 0 0 0.8 0 0 0 0 0.360784 0 0 0 0.4 0"/>
<feBlend mode="normal" in2="effect2_dropShadow_48_160" result="effect3_dropShadow_48_160"/>
<feBlend mode="normal" in="SourceGraphic" in2="effect3_dropShadow_48_160" result="shape"/>
</filter>
<filter id="filter11_ddd_48_160" x="1183.57" y="801.773" width="88.6797" height="89.4869" filterUnits="userSpaceOnUse" color-interpolation-filters="sRGB">
<feFlood flood-opacity="0" result="BackgroundImageFix"/>
<feColorMatrix in="SourceAlpha" type="matrix" values="0 0 0 0 0 0 0 0 0 0 0 0 0 0 0 0 0 0 127 0" result="hardAlpha"/>
<feOffset/>
<feGaussianBlur stdDeviation="2"/>
<feComposite in2="hardAlpha" operator="out"/>
<feColorMatrix type="matrix" values="0 0 0 0 0.498039 0 0 0 0 0.8 0 0 0 0 0.360784 0 0 0 1 0"/>
<feBlend mode="normal" in2="BackgroundImageFix" result="effect1_dropShadow_48_160"/>
<feColorMatrix in="SourceAlpha" type="matrix" values="0 0 0 0 0 0 0 0 0 0 0 0 0 0 0 0 0 0 127 0" result="hardAlpha"/>
<feOffset/>
<feGaussianBlur stdDeviation="6"/>
<feComposite in2="hardAlpha" operator="out"/>
<feColorMatrix type="matrix" values="0 0 0 0 0.498039 0 0 0 0 0.8 0 0 0 0 0.360784 0 0 0 0.7 0"/>
<feBlend mode="normal" in2="effect1_dropShadow_48_160" result="effect2_dropShadow_48_160"/>
<feColorMatrix in="SourceAlpha" type="matrix" values="0 0 0 0 0 0 0 0 0 0 0 0 0 0 0 0 0 0 127 0" result="hardAlpha"/>
<feOffset/>
<feGaussianBlur stdDeviation="15"/>
<feComposite in2="hardAlpha" operator="out"/>
<feColorMatrix type="matrix" values="0 0 0 0 0.498039 0 0 0 0 0.8 0 0 0 0 0.360784 0 0 0 0.4 0"/>
<feBlend mode="normal" in2="effect2_dropShadow_48_160" result="effect3_dropShadow_48_160"/>
<feBlend mode="normal" in="SourceGraphic" in2="effect3_dropShadow_48_160" result="shape"/>
</filter>
<filter id="filter12_ddd_48_160" x="743.949" y="1037.66" width="88.6709" height="89.4819" filterUnits="userSpaceOnUse" color-interpolation-filters="sRGB">
<feFlood flood-opacity="0" result="BackgroundImageFix"/>
<feColorMatrix in="SourceAlpha" type="matrix" values="0 0 0 0 0 0 0 0 0 0 0 0 0 0 0 0 0 0 127 0" result="hardAlpha"/>
<feOffset/>
<feGaussianBlur stdDeviation="2"/>
<feComposite in2="hardAlpha" operator="out"/>
<feColorMatrix type="matrix" values="0 0 0 0 0.498039 0 0 0 0 0.8 0 0 0 0 0.360784 0 0 0 1 0"/>
<feBlend mode="normal" in2="BackgroundImageFix" result="effect1_dropShadow_48_160"/>
<feColorMatrix in="SourceAlpha" type="matrix" values="0 0 0 0 0 0 0 0 0 0 0 0 0 0 0 0 0 0 127 0" result="hardAlpha"/>
<feOffset/>
<feGaussianBlur stdDeviation="6"/>
<feComposite in2="hardAlpha" operator="out"/>
<feColorMatrix type="matrix" values="0 0 0 0 0.498039 0 0 0 0 0.8 0 0 0 0 0.360784 0 0 0 0.7 0"/>
<feBlend mode="normal" in2="effect1_dropShadow_48_160" result="effect2_dropShadow_48_160"/>
<feColorMatrix in="SourceAlpha" type="matrix" values="0 0 0 0 0 0 0 0 0 0 0 0 0 0 0 0 0 0 127 0" result="hardAlpha"/>
<feOffset/>
<feGaussianBlur stdDeviation="15"/>
<feComposite in2="hardAlpha" operator="out"/>
<feColorMatrix type="matrix" values="0 0 0 0 0.498039 0 0 0 0 0.8 0 0 0 0 0.360784 0 0 0 0.4 0"/>
<feBlend mode="normal" in2="effect2_dropShadow_48_160" result="effect3_dropShadow_48_160"/>
<feBlend mode="normal" in="SourceGraphic" in2="effect3_dropShadow_48_160" result="shape"/>
</filter>
<filter id="filter13_ddd_48_160" x="1661.44" y="157.977" width="74.3301" height="74.744" filterUnits="userSpaceOnUse" color-interpolation-filters="sRGB">
<feFlood flood-opacity="0" result="BackgroundImageFix"/>
<feColorMatrix in="SourceAlpha" type="matrix" values="0 0 0 0 0 0 0 0 0 0 0 0 0 0 0 0 0 0 127 0" result="hardAlpha"/>
<feOffset/>
<feGaussianBlur stdDeviation="2"/>
<feComposite in2="hardAlpha" operator="out"/>
<feColorMatrix type="matrix" values="0 0 0 0 0.498039 0 0 0 0 0.8 0 0 0 0 0.360784 0 0 0 1 0"/>
<feBlend mode="normal" in2="BackgroundImageFix" result="effect1_dropShadow_48_160"/>
<feColorMatrix in="SourceAlpha" type="matrix" values="0 0 0 0 0 0 0 0 0 0 0 0 0 0 0 0 0 0 127 0" result="hardAlpha"/>
<feOffset/>
<feGaussianBlur stdDeviation="6"/>
<feComposite in2="hardAlpha" operator="out"/>
<feColorMatrix type="matrix" values="0 0 0 0 0.498039 0 0 0 0 0.8 0 0 0 0 0.360784 0 0 0 0.7 0"/>
<feBlend mode="normal" in2="effect1_dropShadow_48_160" result="effect2_dropShadow_48_160"/>
<feColorMatrix in="SourceAlpha" type="matrix" values="0 0 0 0 0 0 0 0 0 0 0 0 0 0 0 0 0 0 127 0" result="hardAlpha"/>
<feOffset/>
<feGaussianBlur stdDeviation="15"/>
<feComposite in2="hardAlpha" operator="out"/>
<feColorMatrix type="matrix" values="0 0 0 0 0.498039 0 0 0 0 0.8 0 0 0 0 0.360784 0 0 0 0.4 0"/>
<feBlend mode="normal" in2="effect2_dropShadow_48_160" result="effect3_dropShadow_48_160"/>
<feBlend mode="normal" in="SourceGraphic" in2="effect3_dropShadow_48_160" result="shape"/>
</filter>
<clipPath id="clip0_48_160">
<rect width="2029" height="1080" fill="white"/>
</clipPath>
</defs>
</svg>
